<?xml version="1.0" encoding="utf-8"?>
<!-- Generator: Adobe Illustrator 25.2.0, SVG Export Plug-In . SVG Version: 6.00 Build 0)  -->
<svg version="1.1" id="Layer_1" xmlns="http://www.w3.org/2000/svg" xmlns:xlink="http://www.w3.org/1999/xlink" x="0px" y="0px"
	 viewBox="0 0 55.6 55.7" style="enable-background:new 0 0 55.6 55.7;" xml:space="preserve">
<style type="text/css">
	.st0{fill-rule:evenodd;clip-rule:evenodd;fill:#0087A0;}
</style>
<path class="st0" d="M35,35.8c-2.9-0.1-7.9-2.8-10.1-4.9c-1.2-1.1-2.3-2.4-3.3-4.2c-0.6-1.1-2-4.2-2-5.7c0-0.8,1.1-1.6,1.6-2.1
	c0.7-0.7,1.2-1.2,1.9-1.9c0.5-0.5,1.4-1.2,1.5-2.3c0.2-1.4-0.6-1.9-1.2-2.5L12.3,1.2c-2.2-1.4-4,1.2-4.8,2.1C4.8,6,2.1,8.1,0.7,11.5
	c-1.8,4.4,0.1,8.3,1.7,11.9C4,26.9,6,30.1,8,32.9c3.7,5.2,9.8,11.4,15.1,15c2.9,2,6,3.8,9.6,5.5c3.7,1.7,7.2,3.4,11.8,1.7
	c1.8-0.7,3.5-1.9,4.5-3c1.3-1.4,2.6-2.4,3.9-3.7c0.9-1,3.3-2.5,2.1-4.7C54.5,43,44.7,33.3,43.6,32.3c-1.6-1.6-3-2.1-4.8-0.2
	C37.6,33.3,36.2,34.5,35,35.8 M40.5,53.2c-3.9,0-13.8-6-16.3-7.8c-9.4-6.7-16.7-15.9-21-27C1.8,14.6,2.9,11.7,5,9.4
	c0.5-0.5,5.4-5.7,5.9-6l11.1,11.2c-1.3,2.2-5,3.9-5,6.1c0,0.9,0.4,2.3,0.6,3.1c1.2,4.2,2.8,6.1,5.5,9c2.4,2.6,9.8,6,12.3,5.7
	c1.8-0.3,4.3-4.3,5.8-5l11.3,11.4c-1.7,1.7-3.3,3.3-5.1,5C45.5,51.7,44.1,53.2,40.5,53.2z"/>
<path class="st0" d="M28.3,0.2c-1.5,0.6-0.8,1.9-0.3,2.2c0.6,0.4,2.4,0.2,3.3,0.2c3.8,0.3,7.3,1.5,10.4,3.5
	c5.8,3.8,9.7,10.1,11,17.2c0.3,1.4,0,5.8,2.3,4.6c1.9-0.9-0.9-9.5-1.5-11.1C50.2,9,43.4,2.3,34.7,0.5C33.3,0.3,29.5-0.3,28.3,0.2"/>
<path class="st0" d="M28.9,8c-1.5,0.3-1.6,2.5,0.5,2.5c1.8,0,2.9,0.1,4.5,0.6C40.1,13,44.2,19,45.2,25.2c0.2,1.3,0,3.7,1.8,3.3
	c2.2-0.5,0.2-6.5-0.3-7.9c-1.7-4.6-5-8.7-9.4-10.9C35.4,8.8,31.3,7.5,28.9,8"/>
</svg>
