<?xml version="1.0" encoding="utf-8"?>
<!-- Generator: Adobe Illustrator 25.2.0, SVG Export Plug-In . SVG Version: 6.00 Build 0)  -->
<svg version="1.1" id="Layer_1" xmlns="http://www.w3.org/2000/svg" xmlns:xlink="http://www.w3.org/1999/xlink" x="0px" y="0px"
	 viewBox="0 0 11.1 16.7" style="enable-background:new 0 0 11.1 16.7;" xml:space="preserve">
<style type="text/css">
	.st0{fill-rule:evenodd;clip-rule:evenodd;fill:#FFFFFF;}
</style>
<path class="st0" d="M5.5,0C4.2,0,2.7,0.6,1.8,1.5C1.3,1.9,1.4,1.8,1,2.4C0.5,3.1,0.2,4,0,4.9c-0.2,1.7,0.7,4,1.4,5.4
	C2,11.4,3,13.1,3.7,14.2l1.6,2.3c0.3,0.4,0.5,0,0.7-0.2c0.7-0.9,1.2-1.6,1.8-2.5C8,13.4,8.2,13,8.4,12.6c0.4-0.7,0.8-1.5,1.2-2.2
	c0.1-0.1,0.1-0.2,0.1-0.3l0.4-0.9c0.2-0.4,0.3-0.8,0.5-1.3c0.1-0.5,0.3-0.9,0.3-1.4c0.2-1.3,0-2.4-0.6-3.6c-0.1-0.2-0.2-0.4-0.3-0.6
	C9.7,1.8,9.8,2,9.3,1.5C9.1,1.3,9,1.2,8.8,1.1C8.6,1,8.5,0.9,8.3,0.7C7.6,0.3,6.7,0,5.5,0 M2.4,5.5c0,0.6,0.1,0.9,0.3,1.4
	c0.7,1.8,3.4,2.6,5.1,1c2.2-2.2,0.4-5.5-2.1-5.5c-1,0-1.8,0.4-2.4,0.9C2.7,3.9,2.4,4.7,2.4,5.5z M2.9,5.7c0-0.9,0.2-1.4,0.8-2.1
	c1.2-1.2,3.3-0.9,4.2,0.7c0.4,0.7,0.4,1.6,0,2.4C7.8,6.9,7.8,7,7.7,7.1C7.5,7.4,7.3,7.5,7.1,7.7c-0.9,0.6-2.1,0.6-3,0
	C4,7.7,3.8,7.6,3.7,7.5C3.4,7.1,2.9,6.4,2.9,5.7z M0.6,5.6c0-0.9,0.2-1.6,0.5-2.3c0.4-0.9,1.4-1.9,2.3-2.3c1.7-0.8,3.5-0.7,5.1,0.4
	c0.5,0.3,0.9,0.8,1.2,1.2c0.6,0.8,0.9,1.9,0.9,2.9c0,1.3-0.5,2.6-1,3.7l-1,1.9c-0.5,0.9-1.2,2.1-1.8,3l-1.2,1.7
	c-0.1-0.1-0.3-0.4-0.4-0.5C5,15.2,4.9,15,4.8,14.8c-0.1-0.2-0.2-0.4-0.4-0.6C2.9,12.1,0.6,7.9,0.6,5.6z"/>
</svg>
