<?xml version="1.0" encoding="utf-8"?>
<!-- Generator: Adobe Illustrator 25.2.0, SVG Export Plug-In . SVG Version: 6.00 Build 0)  -->
<svg version="1.1" id="Layer_1" xmlns="http://www.w3.org/2000/svg" xmlns:xlink="http://www.w3.org/1999/xlink" x="0px" y="0px"
	 viewBox="0 0 30.1 32.8" style="enable-background:new 0 0 30.1 32.8;" xml:space="preserve">
<style type="text/css">
	.st0{fill-rule:evenodd;clip-rule:evenodd;fill:#FFFFFF;}
</style>
<path class="st0" d="M18.6,19.9c0.2-0.2,0.7-0.5,1-0.7c0.4-0.3,0.5-0.5,0.8-0.8c0.5-0.6,0.9-1.3,1.2-2.1c0.6-1.7,0.4-4.3,0.4-6.2
	c0-0.5,0.1-3-0.1-3.3c-0.2-0.5-0.8-0.3-1,0c-1.4,1.6-4,1.5-6.3,2c-2.6,0.6-3.9,1.5-5.4,3c-0.2,0.2-0.7,0.7-0.2,1.1
	c0.5,0.5,0.9-0.1,1.1-0.3c2.8-3,4.8-2.6,8.4-3.3c1.6-0.3,1.5-0.5,2.4-0.9c0,1.4,0,2.8,0,4.3c0,1.5,0.1,2.5-0.5,3.7
	C18.2,21,12,20.6,9.9,16.7c-0.1-0.3-0.2-0.5-0.5-0.6c-0.3-0.1-0.6,0.1-0.7,0.3c-0.2,0.4,0.4,1.2,0.6,1.5c1,1.4,1.1,1.2,2.1,2
	c0,0.3-0.3,0.9-0.4,1.2c-0.2,0.4-0.3,0.7-0.8,0.7c-1.1,0-1.8-0.1-3,0.2c-2,0.5-3.5,1.7-4.8,3.2c-0.2,0.3-0.4,0.6-0.6,0.9
	C1,27.4,0.4,29,0.2,30.6c-0.2,1.3-0.4,2.2,0.6,2.2h28.6c0.6,0,0.8-0.3,0.7-0.9c-0.1-3.6-1.9-7.3-5-9.1c-2.3-1.3-3.3-0.9-5.2-1.1
	C19.3,21.7,18.7,20.5,18.6,19.9 M8.1,29.3c0,0.5,0.1,2,0,2.4c-0.6,0.1-4.8,0-6.1,0c-0.3,0-0.6,0.1-0.8-0.1c0.3-4.7,3.5-8.7,8.1-8.7
	c1.3,0,1.8,0.3,2.8-1.5c0.2-0.3,0.2-0.7,0.5-1c2.2,0.6,2.8,0.6,5,0c0.3,0.3,0.3,1,1,1.8c0.7,0.9,0.8,0.7,2.2,0.7
	c4.8,0,7.9,4.1,8.2,8.7c-0.1,0.2-0.2,0.1-0.7,0.1c-1.3,0-5.4,0.1-6.1,0c-0.1-0.4-0.1-1.9,0-2.4c-0.1-0.6-1-0.6-1.1,0
	c0,0.5,0.1,2.1,0,2.4l-11.7,0c-0.1-0.4,0-2,0-2.5C9.1,28.6,8.2,28.6,8.1,29.3z"/>
<path class="st0" d="M5.1,9.4C4.1,9.8,4,10.5,4,11.8c0,0.9-0.1,2.6,0,3.5c0.1,0.9,1,1.6,2,1.5c0.5-0.1,0.9-0.4,1.1-0.7
	c0.3-0.4,0.3-0.8,0.4-1.4c1.1,0.4,2.3,1.6,5.3,2.3c0.8,0.2,0.4,0.9,1.6,1c0.8,0.1,1.7,0.1,2.2-0.4c0.5-0.4,0.6-1.3,0.2-1.9
	c-0.6-0.9-2.6-0.7-3-0.5c-0.3,0.2-0.4,0.3-0.6,0.5c-0.1,0.1,0,0-0.1,0.1c-1.5-0.2-3.2-1.1-4.4-1.8c-0.4-0.2-1-0.5-1.2-0.9
	c0-1.5,0.3-3.2-1.2-3.6c0.1-4.5,4.1-8.3,8.7-8.3c4.6,0,8.6,3.8,8.7,8.3c-1.5,0.4-1.2,2.4-1.2,3.9c0,1-0.3,3.3,1.7,3.4
	c0.7,0,1.3-0.5,1.6-1c0.3-0.6,0.2-1.7,0.2-2.4c0-1.7,0.3-3.4-1.2-4c-0.3-2.7-1.1-4.9-3-6.7c-3.9-3.7-9.9-3.7-13.8,0
	C6.3,4.5,5.4,6.8,5.1,9.4 M5.1,15.1c-0.1-0.8,0-2.3,0-3.1c0-0.5-0.1-1.1,0.3-1.3c0.4-0.3,0.9,0,0.9,0.4c0.1,0.7,0,2.4,0,3.1
	c0,0.5,0.1,1.1-0.2,1.4C5.7,15.8,5.2,15.5,5.1,15.1z M24.9,15.2c-0.2,0.4-0.7,0.5-1,0.2c-0.3-0.4-0.2-4.5-0.1-4.6
	c0.1-0.4,0.7-0.5,1-0.1c0.3,0.3,0.2,0.9,0.2,1.4C25,12.5,25,15,24.9,15.2z M14.3,16.2c0.3-0.2,1.3-0.2,1.6,0
	c0.2,0.7-0.2,0.6-0.8,0.6C14.5,16.8,14.1,16.9,14.3,16.2z"/>
</svg>
