<?xml version="1.0" encoding="utf-8"?>
<!-- Generator: Adobe Illustrator 25.2.0, SVG Export Plug-In . SVG Version: 6.00 Build 0)  -->
<svg version="1.1" id="Layer_1" xmlns="http://www.w3.org/2000/svg" xmlns:xlink="http://www.w3.org/1999/xlink" x="0px" y="0px"
	 viewBox="0 0 36.7 38.4" style="enable-background:new 0 0 36.7 38.4;" xml:space="preserve">
<style type="text/css">
	.st0{fill-rule:evenodd;clip-rule:evenodd;fill:#FFFFFF;}
</style>
<path class="st0" d="M7.5,23.7c-0.8-1.3-0.8-1.2-2.8-1.2c-1.1,0-3.1-0.3-3.9,0.4c-1.1,0.8-0.6,9.4-0.6,12c0,1.3-0.2,2.7,0.9,3.3
	c0.5,0.2,5,0.5,5.8-0.1c0.6-0.5,0.4-0.8,0.8-1.3c0.6-0.7,5.1-2.1,6.4-2c2.5,0,5.2,0.8,7.8,0.8c5.8,0,8.4-3.2,11.5-5.5
	c0.8-0.6,1.5-1.2,2.2-1.8c0.8-0.7,1.4-1.5,1.2-2.9c-0.2-1-1.2-1.9-2.2-2c-2.2-0.3-5.1,3.5-7.9,4.8c-1.2,0.6-6.5,1.3-7.5,0.4
	c-0.8-0.8-0.4-1.8,1.4-2.2c0.8-0.2,2.6-0.7,3.2-1.1c1.2-0.8,2-4.4-2.2-4.4c-2.2,0-6.2-0.2-8.2,0.3C11.7,21.5,9,23,7.5,23.7 M7.5,25
	c0.3-0.6,1.4-0.9,1.9-1.2c2.8-1.4,3.9-2.1,7-2.1c1.3,0,5.1-0.2,6.1,0.1c0.8,0.2,1.3,0.9,1,1.9c-0.7,1.9-5.3,0.9-5.7,3.5
	c-0.4,2.5,1.7,2.5,3.7,2.5c5.8,0,6.6-1.5,10.8-4.6c2.4-1.8,3.5-0.2,3.4,0.9c0,1.1-0.6,1.3-1.2,1.8C33,29,29.4,32,27.8,32.9
	c-3.6,2-6.1,1.7-10.4,1.2c-5.9-0.7-5.1-0.1-9.9,1.5L7.5,25z M23.4,0.1c-4.6,0.7-8.5,4.7-7.7,10.1c0.6,4.5,4.8,8.3,10.2,7.6
	c4.4-0.6,8.3-4.8,7.5-10.1C32.7,3.2,28.6-0.6,23.4,0.1z M22.9,1.1c4.8-1,8.8,2.4,9.5,6.3c0.9,4.8-2.5,8.7-6.3,9.4
	c-4.9,0.9-8.8-2.5-9.5-6.5C15.8,5.6,19.1,1.9,22.9,1.1z M21.6,5c0.5,0.1,4.1-0.3,3.9,2.3c-1.1,0-3.5-0.3-4.3,0.3
	c0.1,1,1.6,0.7,4.1,0.7c-0.8,2.4-4.2,0.6-3.7,2.4c0.1,0.4,0.3,0.4,0.6,0.8l2.5,2.8c0.2,0.3,0.7,0.9,1.1,1l0.5-0.1
	c0.2-1-3.2-3.7-3.6-4.7c3.7,0,2.7-2.3,4.3-2.3c1.8,0,1.8,0.2,1.9-0.6c-0.5-0.5-1-0.3-2.3-0.3c-0.4-1.3-0.4-1.2-0.9-2.2
	c2-0.1,3.1,0.3,3.2-0.7c-0.6-0.5-6.1-0.5-7.2-0.2L21.6,5z M1.3,37.3c-0.1,0-0.1-0.1-0.2-0.1c0-0.1,0-0.1,0-0.2C1,36.9,1,36.8,1,36.6
	v-5.8c-0.1-3-0.1-7,0.4-7.4c1.1-0.2,4.2-0.2,5,0.1c0.3,1.7,0.3,4.3,0.2,6.7h0v6.4c0,0.5-0.4,0.8-0.8,0.8h-4
	C1.6,37.4,1.4,37.4,1.3,37.3z"/>
</svg>
