<?xml version="1.0" encoding="utf-8"?>
<!-- Generator: Adobe Illustrator 25.2.0, SVG Export Plug-In . SVG Version: 6.00 Build 0)  -->
<svg version="1.1" id="Layer_1" xmlns="http://www.w3.org/2000/svg" xmlns:xlink="http://www.w3.org/1999/xlink" x="0px" y="0px"
	 viewBox="0 0 48.6 26.1" style="enable-background:new 0 0 48.6 26.1;" xml:space="preserve">
<style type="text/css">
	.st0{fill-rule:evenodd;clip-rule:evenodd;fill:#FFFFFF;}
</style>
<path class="st0" d="M22.6,18.1c0.8,2.2,0.1,0.9,0,3.4c-1.6-1.7-1.5-5-1.4-7.1c-1-0.1-2.7,0.9-3.8,1.2c-1.1,0.3-2.9,0.5-3.6,1.3
	c-1,1-1.2,7.4-0.8,8.9c1.5,0.4,21.4,0.4,22.9,0c0.4-1.6,0.2-7.8-0.9-8.9c-0.2-0.2-7.1-2.6-7.6-2.7c0.2,2.9-0.1,5.1-1.3,7.3
	c-1.2-3.1-0.2-3,0-3.8c-0.7-0.7-1-1.3-2.1-1.6l-1.5,1.4L22.6,18.1z M23.3,17.8c0.4-0.2,0.7-0.6,1-0.7c0.3,0.2,0.5,0.3,0.8,0.5
	c-0.4,1.7-0.7,0.5-0.1,2.5c0.3,1.1,0.1,2,0.6,3.1c0.6-0.2,0.4,0,0.8-0.5c1.5-2,1.7-5.9,1.9-7.4c6.5,3.4,7.1-1,7,10.1l-21.9,0
	c0-1.3,0.2-7,0.7-7.8c0.4-0.5,5.4-1.9,6.3-2.2c-0.1,1.8,0.6,6.8,2.4,7.9c0.3-0.3,0.2,0,0.3-0.5c0.3-0.8,0.1-1.7,0.4-2.5
	C23.8,18.9,24.2,18.7,23.3,17.8z M37.7,14c0,0.5-0.3,1.2-0.5,1.5c-0.9-2.7-0.8-2.7-0.9-5.6c-0.7,0-3.1,1-4.2,1.3
	c-2.2,0.6-2.4,0.6-2.5,3.2c1,0.2,3.9,1,4.8,1.4c2.6,1.1,1.5,3.2,2.5,3.7c0.5,0.3,5.1,0.1,6,0.1c1,0,2.1,0,3.1,0c0.3,0,1.2,0,1.5,0
	c2.3-0.5,0.4-7.3,0.1-7.6c-0.4-0.3-5.7-2-6.2-2.1c0,3.1,0,3-0.9,5.7c-1-1.8-0.3-1.7-0.2-2.9c-0.6-0.6-0.8-1-1.6-1.3l-1.3,1.3
	L37.7,14z M38.7,12.1c1.7,0.8,0.1,0.3,0.6,2c0.2,0.9,0.3,2.5,0.7,3.1c1.6-0.8,2.2-4.3,2.1-6.5c0.7,0.2,4.7,1.4,5,1.8
	c0.6,0.7,0.7,5.1,0.6,6.3l-10.6,0c-0.7-5.2-3.8-3.2-6.8-5.1c0-1.5,0.7-1.5,2.1-1.9c1.1-0.3,2.1-0.7,3.2-1c-0.1,2.1,0.6,5.8,2.2,6.5
	c0.3-0.7,0.4-2,0.6-2.9C39,12.2,37.6,13.4,38.7,12.1z M8.2,12.6c0.4,1,0.6,1.5-0.2,2.9c-0.9-2.6-0.9-2.7-0.9-5.7
	c-0.5,0-6,1.9-6.3,2.2c-0.4,0.4-1.7,6.6-0.2,7.4c0.4,0.2,0.1,0.1,0.6,0.2c0.3,0,1.2,0,1.5,0c2.1,0,8.3,0.4,9-0.2
	c0.6-0.5,0.1-1.3,0.7-2.4c0.3-0.6,1-1.1,1.8-1.3c1.3-0.4,3.4-1,4.6-1.3c-0.1-2.6-0.5-2.6-2.7-3.2c-1.1-0.3-3.3-1.3-4-1.2
	c-0.1,3.1,0,2.9-0.9,5.6c-1-1.7-0.3-1.7-0.2-2.9l-1.3-1.3C9,11.6,8.8,12,8.2,12.6z M9.8,12.1c1.2,1.4-0.2,0.1,0.3,2.2
	c0.3,1,0.3,2.2,0.6,2.9c1.6-0.7,2.2-4.3,2.2-6.5c1.1,0.3,2,0.7,3.2,1c1.5,0.4,2,0.3,2.2,1.9c-3.5,1.8-6.2,0.2-6.9,5.2l-10.6,0
	c-0.1-1.1,0-5.4,0.5-6.2c0.4-0.6,4.2-1.7,5.1-1.9c0,2.2,0.5,5.8,2.2,6.5c0.4-0.6,0.3-1.9,0.6-2.9c0-0.1,0.2-0.5,0.2-0.5
	C9.5,12.3,8.3,12.8,9.8,12.1z M22.7,2.9c-1.3,0.5-2.6,1.7-3.1,2.6c-0.5,0.9-0.2,1.3-0.6,2.2c-0.9,2.6-0.6,1.2,1,4.1
	c0.4,0.7,0.7,1.1,1.3,1.6c2.4,2.2,5.5,1.4,7.4-2c0.7-1.2,0.9-0.8,1.2-1.7c0.2-0.8-0.8-4-1.1-4.5C27.2,3.6,25.5,1.9,22.7,2.9z
	 M23.3,3.5c1.5-0.4,2.9,0.2,3.7,1c0.3,0.3,0.3,0.4,0.6,0.7c1.6,1.8,0.6,1,1.1,2.7c0.3,1,0.8,1,0.4,1.9l-0.5,0.6c0,0-0.1,0.1-0.1,0.1
	c-0.4,0.5-1.1,2.7-2.9,3.3c-2.5,0.8-4.1-0.7-5-2.6c-0.4-0.7-1-1.4-1.1-1.6c-0.4-1.1,0.2-0.8,0.4-2c0.2-1-0.1-1.3,0.5-2.1
	C20.9,4.9,22.3,3.7,23.3,3.5z M8.3,0.3c-1,0.5-2.2,1.4-2.5,2.2c-0.3,0.8-1,2.9-0.5,3.8c2,3.8,5.4,5.6,8.2,1.1c1.2-1.9,1.2-1,0.6-3.4
	c-0.5-1.9-0.5-2-1.8-3.1C11.1,0.1,9.8-0.3,8.3,0.3z M13.7,5.6l-1.6,2.6c-0.9,1.2-3.7,2.2-5.4-0.8L5.9,6.1C5.4,5.1,5.7,5.4,6,4.6
	c0.7-2.2-0.1-1.2,1.4-2.8c0.7-0.7,1.4-1.4,2.9-1.1c1,0.2,1.9,1.2,2.4,1.8C13.4,3.4,13,2.8,13.2,4C13.5,5.5,13.4,4.4,13.7,5.6z
	 M37.5,0.3c-0.8,0.4-2.2,1.5-2.5,2.2c-0.3,0.8-1,2.9-0.5,3.8c1.9,3.7,5.4,5.6,8.2,1c1.2-1.9,1.2-1,0.6-3.4c-0.5-1.7-0.6-2.2-1.8-3.1
	C40.5,0.2,38.8-0.3,37.5,0.3z M34.9,5.6c0.2-0.9,0.6-2.6,1.2-3.2c0.6-0.7,1.2-1.6,2.7-1.7c1.5,0,3.4,1.6,3.6,3.1
	c0.4,2.3,1.2,0.8-0.9,4.1c-0.4,0.7-1.3,1.4-2.5,1.5C36.4,9.4,36.2,7.3,34.9,5.6z"/>
</svg>
