<?xml version="1.0" encoding="utf-8"?>
<!-- Generator: Adobe Illustrator 25.2.0, SVG Export Plug-In . SVG Version: 6.00 Build 0)  -->
<svg version="1.1" id="Layer_1" xmlns="http://www.w3.org/2000/svg" xmlns:xlink="http://www.w3.org/1999/xlink" x="0px" y="0px"
	 viewBox="0 0 34.8 34.9" style="enable-background:new 0 0 34.8 34.9;" xml:space="preserve">
<style type="text/css">
	.st0{fill-rule:evenodd;clip-rule:evenodd;fill:#FFFFFF;}
</style>
<path class="st0" d="M21.9,22.4c-1.8,0-4.9-1.8-6.3-3.1c-0.8-0.7-1.5-1.5-2.1-2.6c-0.4-0.7-1.2-2.6-1.2-3.5c0-0.5,0.7-1,1-1.3
	c0.4-0.4,0.8-0.8,1.2-1.2c0.3-0.3,0.9-0.8,0.9-1.4c0.1-0.9-0.4-1.2-0.8-1.6l-7-7C6.3-0.2,5.1,1.5,4.6,2C3,3.8,1.3,5.1,0.4,7.2
	c-1.1,2.8,0.1,5.2,1.1,7.4c1,2.2,2.2,4.2,3.5,5.9c2.3,3.3,6.1,7.1,9.4,9.4c1.8,1.2,3.8,2.4,6,3.4c2.3,1.1,4.5,2.1,7.4,1.1
	c1.2-0.4,2.2-1.2,2.8-1.9c0.8-0.9,1.6-1.5,2.4-2.3c0.6-0.6,2.1-1.6,1.3-2.9c-0.2-0.4-6.4-6.5-7-7.1c-1-1-1.8-1.3-3-0.1
	C23.5,20.9,22.7,21.6,21.9,22.4 M25.4,33.3c-2.5,0-8.6-3.8-10.2-4.9C9.3,24.2,4.7,18.4,2,11.5C1.1,9.2,1.8,7.3,3.1,5.9
	c0.3-0.3,3.4-3.6,3.7-3.8l7,7c-0.8,1.4-3.1,2.5-3.1,3.8c0,0.5,0.2,1.4,0.4,1.9c0.7,2.7,1.7,3.9,3.4,5.6c1.5,1.6,6.1,3.8,7.7,3.5
	c1.1-0.2,2.7-2.7,3.6-3.1l7.1,7.1c-1.1,1-2.1,2.1-3.2,3.1C28.5,32.4,27.6,33.3,25.4,33.3z"/>
<path class="st0" d="M17.7,0.1c-0.9,0.4-0.5,1.2-0.2,1.4c0.4,0.2,1.5,0.1,2,0.2c2.4,0.2,4.6,1,6.5,2.2c3.6,2.4,6.1,6.3,6.9,10.8
	c0.2,0.9,0,3.6,1.4,2.9c1.2-0.6-0.5-5.9-0.9-6.9c-2-5-6.3-9.2-11.7-10.3C20.9,0.2,18.5-0.2,17.7,0.1"/>
<path class="st0" d="M18.1,5c-0.9,0.2-1,1.6,0.3,1.6c1.1,0,1.8,0.1,2.8,0.4c3.8,1.2,6.4,4.9,7,8.8c0.1,0.8,0,2.3,1.1,2.1
	c1.4-0.3,0.1-4.1-0.2-5c-1.1-2.9-3.1-5.4-5.9-6.8C22.2,5.5,19.6,4.7,18.1,5"/>
</svg>
