<?xml version="1.0" encoding="utf-8"?>
<!-- Generator: Adobe Illustrator 25.2.0, SVG Export Plug-In . SVG Version: 6.00 Build 0)  -->
<svg version="1.1" id="Layer_1" xmlns="http://www.w3.org/2000/svg" xmlns:xlink="http://www.w3.org/1999/xlink" x="0px" y="0px"
	 viewBox="0 0 42.9 35.8" style="enable-background:new 0 0 42.9 35.8;" xml:space="preserve">
<style type="text/css">
	.st0{fill:none;stroke:#FFFFFF;stroke-width:0.6499;stroke-miterlimit:2.6131;}
</style>
<path class="st0" d="M8.6,4.8l0.8-0.2L8.6,4.8z M9.4,4.5L8.6,4.8L9.4,4.5z M5.2,11.2L5.2,11.2C5.2,11.2,5.2,11.2,5.2,11.2z
	 M5.3,25.4l0.1,0.2L5.3,25.4z M5.3,25.4L5,26.3L5.3,25.4z M5,26.3l2.4,3L5,26.3z M7.4,29.3v1V29.3z M0.3,19.2v-0.4
	c0.1-0.1,0.2-0.1,0.6,0C1.3,19,1.6,19.2,2,19.4c0.5,0.4,0.9,0.9,1.3,1.4l0.3,0.5c0-0.4-0.1-0.5-0.1-1c-0.1-2.2-0.3-1.6-1.1-2.1
	c-0.7-0.5-1.2-2-1.4-2.9c-0.1-0.5-0.2-1.5-0.1-2c0.1-0.5,0.4-0.1,0.6,0c0.2,0.2,0.4,0.3,0.6,0.5c0.6,0.7,0.9,1.2,1.2,2
	c0.3,0.9,0,0.6,0.3,0.8c0-0.5,0-0.8,0.1-1.3c0.3-1.7-0.5-1-1.1-2.6c-0.2-0.7-0.3-1.4-0.2-2.4c0-1.2,0.3-1.5,0.4-2.1
	c0.4,0.1,0.5,0.4,0.7,0.7c0.7,1,0.9,1.8,0.9,3.3c0.1-0.2,0.7-1.8,0.6-2C5,9.7,4.6,9.5,4.5,9.2c-0.4-1-0.1-2.7,0.1-3.5
	C4.7,5.2,5,4.1,5.6,4C5.7,4.4,5.8,4.6,6,5c0.1,0.3,0.2,0.7,0.2,1C6.3,7.4,6.1,7.6,6,8.3c0.3-0.4,0.3-0.5,0.6-0.9
	c0.9-1.3,0.8-1,0.4-2C6.4,4.2,7.4,2.2,8.2,1.2C8.4,0.9,8.6,0.6,9,0.5C9.2,1,9.2,2.2,9.1,2.8C8.9,4.1,8.8,4,8.6,4.8
	C9,4.5,9.4,4,9.8,3.6c0.4-0.4,0.2-0.2,0.3-0.7c0.3-1.5,1.9-2.1,3.2-2.5c0.7-0.3,0.4,0.3,0,1.2c-0.3,0.6-0.5,0.8-1,1.2
	c-1.2,1.1-1.6,0.4-2.4,1.1C9.7,4.1,9.6,4.3,9.4,4.5c1.2-0.3,2-0.1,3.1,0.2c-0.2,0.6-1.2,1.3-1.8,1.5C9.1,6.6,9.1,6,8,6
	C7.8,6.4,7.2,7,7.1,7.5c1.1-0.6,1.8-0.6,3.4-0.6c-0.2,0.9-1.9,2.6-3.6,2.3c-0.1,0-0.2,0-0.4,0C6.3,9.1,6.1,9.2,6,9.4l-0.7,1.7
	c0.7-0.5,0.3-0.3,1.2-0.7c2.4-1.2,2.1-0.9,1.7,0c-0.6,1.3-1.3,2.5-3,2.8c-0.8,0.1-0.7,0.3-0.9,1c-0.1,0.5-0.3,1.1-0.3,1.6l0.6-0.9
	c0.3-0.4,1.9-1.8,2.4-1.9c0,1.8-0.9,3.8-2.3,4.5c-1.3,0.7-0.8,0.8-0.8,3h0.2c0-0.7,0.7-1.6,1-2c0.2-0.3,0.9-1.4,1.3-1.6
	c0.3,0.6,0.1,1.9,0,2.6c-0.4,2.4-2.2,2.6-2,3.7l0.7,2.1c0-1.7,0.9-3.1,1.2-4.1c0.3,0,0.3,0.1,0.4,0.3c0.5,1.3,0.6,2.7,0.2,4.1
	c-0.6,2-1.3,1-0.2,2.9c0.1,0.2,0.4,0.6,0.6,0.7c-0.2-1-0.1-1.2-0.1-2.2c0-0.4,0.1-1.9,0.3-2.1c0.5,0.1,1,1.2,1.2,1.7
	c1.2,3-0.6,3.8,0.4,4.7l1.6,1.2c-0.1-0.3-0.3-0.4-0.4-0.9c-0.3-0.7-0.6-2.5-0.6-3.3c0.4,0,0.2,0,0.4,0.1c1.1,0.5,2.1,2,2.2,3.1
	l0.1,1.8l2.2,0.7c-0.3,1-0.9,0-2.5,0l-0.4,0.6c-0.6,0.5-1.3,0.7-2.2,0.8c-0.3,0-1.4-0.2-1.7-0.3c-0.5-0.2-1-0.3-1.1-0.8
	c0.2-0.3,1.1-0.8,1.5-1c0.7-0.3,1.2-0.3,2.3-0.3l-0.9-0.7c-1.7-1.4-0.6,0-2.5,0c-1.6,0-3.6-1.1-3.9-2.1c1.3-0.6,2.8-0.7,4.1,0
	C7.3,30,7,29.6,6.8,29.3c-0.3-0.4-0.6-1.1-1-1.2c-0.2,0-1.8,0.8-3.5-1.4c-0.5-0.6-0.8-1-1-1.9c1.2,0,2.2,0.2,3.1,0.9
	c0.3,0.2,0.4,0.4,0.7,0.6L4.2,24C4,23.5,4,23.7,3.9,23.3c-0.7,0-1-0.1-1.4-0.4c-0.3-0.2-0.7-0.7-0.9-0.9c-0.5-0.7-0.9-1.5-1.1-2.4
	C0.4,19.4,0.4,19.3,0.3,19.2z M10.6,33.1L10.6,33.1C10.7,33.1,10.6,33.1,10.6,33.1z M33.5,4.5l0.8,0.2L33.5,4.5z M37.6,11.2
	L37.6,11.2C37.7,11.2,37.6,11.2,37.6,11.2z M37.6,25.4l0,0.2L37.6,25.4z M37.6,25.4l0.2,0.9L37.6,25.4z M37.9,26.3l-2.4,3L37.9,26.3
	z M35.5,29.3v1V29.3z M42.6,18.8v0.4c-0.2,0.9-1,2.4-1.3,2.8c-0.2,0.3-0.6,0.7-0.9,0.9c-0.4,0.3-0.7,0.4-1.4,0.4
	c-0.2,0.3-0.2,0.4-0.3,0.7l-0.8,2.2c0.8-0.5,1.1-1.5,3.8-1.5c-0.4,1.6-2.2,3.8-4,3.5c-0.3-0.1-0.3-0.2-0.5-0.1
	c-0.4,0.1-1.6,2.1-1.6,2.1c1.3-0.7,2.8-0.6,4.1,0c-0.3,1-2.3,2.1-3.9,2.1c-1.4,0-1.2-1-2-0.4l-1.4,1.1c1.3,0,2.2,0.1,3.1,0.7
	c0.2,0.2,0.5,0.4,0.7,0.5c0,0.3-0.2,0.4-0.4,0.6c-0.5,0.3-1.8,0.6-2.4,0.6c-1.2,0-2.1-0.3-2.6-1.3c-1.6,0-2.2,1-2.5,0
	c0.3-0.2,0.7-0.2,1.1-0.4c0.4-0.1,0.7-0.3,1.1-0.4c0-0.4,0.1-0.5,0.1-0.9c0-0.3,0-0.7,0-1c0.2-1.2,1-2.3,2-2.9
	c0.3-0.2,0.4-0.2,0.7-0.3c0,0.6-0.2,1.7-0.4,2.3c-0.4,1.7-0.6,1.4-0.7,1.8c0.3-0.2,0.6-0.4,0.9-0.6c0.9-0.8,1.2-0.9,0.9-1.8
	c-0.1-0.3-0.2-0.8-0.2-1.2c-0.1-1.2,0.8-3.8,1.6-4c0.1,0.2,0.2,1.8,0.3,2.2c0.1,1,0.1,1.2-0.1,2.2c0.2-0.1,1.1-1.4,1.1-1.7
	c0.2-0.9-1.3-1.3-0.9-4.4c0-0.3,0.2-0.8,0.3-1.1c0.2-0.7,0.2-0.7,0.5-0.8c0.1,0.6,1.2,2.4,1.2,4.1l0.4-1.1c0.1-0.3,0.3-0.9,0.3-1.1
	c0.1-0.7-0.8-1.2-1.1-1.7c-0.4-0.5-0.7-1.4-0.9-2c-0.1-0.6-0.3-1.9,0-2.5c0.3,0.1,0.3,0.1,0.4,0.3l1,1.3c0.3,0.4,0.9,1.3,0.9,1.9
	h0.2c0-0.6,0.3-2.1-0.1-2.5c-0.2-0.3-0.5-0.4-0.8-0.5c-1.3-0.7-2.2-2.7-2.2-4.5c0.4,0,0.7,0.4,0.9,0.6c2.1,1.7,1.2,1.2,2.1,2.2
	c0-0.5-0.2-1.2-0.3-1.7c-0.3-1.7-0.7-0.3-2.3-1.6c-0.4-0.3-0.6-0.6-0.9-1c-0.3-0.5-0.4-0.8-0.7-1.3c-0.4-0.9-0.1-0.7,0.5-0.4
	c0.5,0.2,1.5,0.6,2,0.9c0.2,0.1,0.3,0.3,0.5,0.4c-0.1-0.5-0.4-1-0.6-1.5c0-0.1-0.1-0.2-0.1-0.2c-0.2-0.2-0.5-0.3-0.8-0.2
	c-0.6,0.1-0.9,0.1-1.7-0.2c-0.9-0.4-1.3-0.9-1.8-1.6c-0.1-0.2-0.2-0.3-0.1-0.4c0.3-0.3,2.4,0,3.3,0.5c-0.1-0.4-0.7-1-0.9-1.5
	c-0.8,0-0.7,0.2-1.4,0.3c-1.3,0.2-3-0.8-3.2-1.6c1.1-0.3,1.9-0.5,3.1-0.2c-1-1.5-1.6-0.4-2.9-1.7c-0.5-0.5-0.7-0.6-1-1.3
	c-0.1-0.2-0.3-0.6-0.3-0.8c-0.1-0.5,0.2-0.3,0.5-0.2c1.1,0.4,2.2,0.8,2.9,1.7c0.6,0.9,0,0.9,0.6,1.5C33.6,4,34,4.5,34.3,4.8
	c-0.2-0.7-0.3-0.6-0.5-2c-0.1-0.6-0.1-1.8,0.1-2.3c0.5,0,1.1,1.1,1.4,1.5c0.5,0.8,1.1,2.5,0.6,3.5c-0.4,0.8-0.4,0.7,0.1,1.5l0.7,1.1
	c0.1,0.1,0.1,0.1,0.1,0.2c0-0.5-0.2-0.6-0.2-1.2c0-2.6,0.3-1.9,0.6-3.1c0.3,0,0.3,0,0.4,0.3c0.7,1.1,1.2,3.9,0.6,5
	c-0.1,0.2-0.5,0.5-0.5,0.8c0,0.2,0.5,1.8,0.7,2c0-1,0.1-1.7,0.4-2.4c0.2-0.4,0.7-1.4,1.2-1.6c0.2,0.7,0.4,1,0.4,2.2
	c0,1,0,1.6-0.2,2.3c-0.1,0.3-0.3,0.6-0.5,0.9c-0.2,0.3-0.5,0.4-0.6,0.7c-0.2,0.4,0.1,1.2,0.1,2.3c0.3-0.2,0.1,0,0.2-0.4
	c0.4-1.3,0.8-2,1.9-2.9c0.2-0.2,0.5-0.5,0.6,0c0.2,1.1-0.2,2.8-0.6,3.7c-1,2.3-1.8,1-1.9,2.4l-0.2,2l0.2-0.3c0.7-1,1.3-1.8,2.6-2.3
	C42.4,18.6,42.5,18.7,42.6,18.8z M32.2,33.1L32.2,33.1C32.2,33.1,32.2,33.1,32.2,33.1z M16.4,20.4c-0.1,0.4-1,5.5-1,6.1
	c0,0.4,0.4,0.4,0.7,0.4l5.4-2.8l5.4,2.8c1.1,0,0.6-1.3,0.2-3.5c-0.2-1-0.3-2.1-0.5-3c0.9-0.6,2.9-2.9,3.6-3.5c2.1-1.7-0.3-1.6-2-1.9
	c-0.9-0.1-1.8-0.3-2.7-0.4c-1-0.1-0.6,0.1-1.5-1.7L22,9.2c-0.1-0.2-0.2-0.3-0.5-0.3c-0.5,0-0.6,0.4-0.8,0.8l-2.1,4.3
	c-0.3,0.6-0.2,0.5-0.9,0.6c-0.7,0.1-5.2,0.7-5.5,0.9c-0.7,0.6,0.5,1.3,1,1.8C13.7,17.8,15.8,19.9,16.4,20.4z"/>
</svg>
