<?xml version="1.0" encoding="utf-8"?>
<!-- Generator: Adobe Illustrator 25.2.0, SVG Export Plug-In . SVG Version: 6.00 Build 0)  -->
<svg version="1.1" id="Layer_1" xmlns="http://www.w3.org/2000/svg" xmlns:xlink="http://www.w3.org/1999/xlink" x="0px" y="0px"
	 viewBox="0 0 15 15.1" style="enable-background:new 0 0 15 15.1;" xml:space="preserve">
<style type="text/css">
	.st0{fill-rule:evenodd;clip-rule:evenodd;fill:#FFFFFF;}
</style>
<path class="st0" d="M9.5,9.7c-0.8,0-2.1-0.8-2.7-1.3C6.4,8.1,6.1,7.7,5.9,7.2C5.7,6.9,5.3,6.1,5.3,5.7c0-0.2,0.3-0.4,0.4-0.6
	C5.9,5,6.1,4.8,6.3,4.6C6.4,4.5,6.6,4.3,6.7,4c0-0.4-0.2-0.5-0.3-0.7l-3-3C2.7-0.1,2.2,0.6,2,0.9C1.3,1.6,0.6,2.2,0.2,3.1
	c-0.5,1.2,0,2.2,0.5,3.2c0.4,0.9,1,1.8,1.5,2.6c1,1.4,2.6,3.1,4.1,4c0.8,0.5,1.6,1,2.6,1.5c1,0.5,1.9,0.9,3.2,0.5
	c0.5-0.2,0.9-0.5,1.2-0.8c0.4-0.4,0.7-0.6,1-1c0.2-0.3,0.9-0.7,0.6-1.3c-0.1-0.2-2.8-2.8-3-3.1c-0.4-0.4-0.8-0.6-1.3-0.1
	C10.2,9,9.8,9.3,9.5,9.7 M11,14.4c-1.1,0-3.7-1.6-4.4-2.1C4,10.5,2,8,0.9,5C0.5,4,0.8,3.2,1.4,2.6C1.5,2.4,2.8,1,3,0.9l3,3
	C5.6,4.5,4.6,5,4.6,5.6c0,0.2,0.1,0.6,0.2,0.8c0.3,1.1,0.8,1.7,1.5,2.4c0.7,0.7,2.7,1.6,3.3,1.5c0.5-0.1,1.2-1.2,1.6-1.3l3.1,3.1
	c-0.5,0.5-0.9,0.9-1.4,1.3C12.3,14,11.9,14.4,11,14.4z"/>
<path class="st0" d="M7.7,0.1C7.3,0.2,7.4,0.6,7.6,0.7c0.2,0.1,0.6,0,0.9,0.1c1,0.1,2,0.4,2.8,1c1.6,1,2.6,2.7,3,4.7
	c0.1,0.4,0,1.6,0.6,1.3c0.5-0.3-0.2-2.6-0.4-3c-0.9-2.1-2.7-4-5.1-4.4C9,0.1,8-0.1,7.7,0.1"/>
<path class="st0" d="M7.8,2.2C7.4,2.3,7.4,2.9,8,2.9c0.5,0,0.8,0,1.2,0.2c1.7,0.5,2.8,2.1,3,3.8c0.1,0.4,0,1,0.5,0.9
	c0.6-0.1,0.1-1.8-0.1-2.1c-0.5-1.3-1.3-2.3-2.6-2.9C9.6,2.4,8.5,2,7.8,2.2"/>
</svg>
