<?xml version="1.0" encoding="utf-8"?>
<!-- Generator: Adobe Illustrator 25.2.0, SVG Export Plug-In . SVG Version: 6.00 Build 0)  -->
<svg version="1.1" id="Layer_1" xmlns="http://www.w3.org/2000/svg" xmlns:xlink="http://www.w3.org/1999/xlink" x="0px" y="0px"
	 viewBox="0 0 45.7 49.9" style="enable-background:new 0 0 45.7 49.9;" xml:space="preserve">
<style type="text/css">
	.st0{fill-rule:evenodd;clip-rule:evenodd;fill:#FFFFFF;}
</style>
<path class="st0" d="M28.3,30.2c0.3-0.3,1-0.8,1.4-1.1c0.6-0.5,0.8-0.7,1.3-1.3c0.8-0.9,1.4-1.9,1.9-3.2c0.9-2.7,0.6-6.5,0.6-9.5
	c0-0.8,0.1-4.6-0.1-5c-0.3-0.8-1.1-0.5-1.6,0c-2.1,2.5-6.1,2.3-9.6,3.1c-4,0.8-5.9,2.3-8.2,4.6c-0.3,0.4-1,1.1-0.4,1.7
	c0.8,0.7,1.3-0.2,1.6-0.5c4.2-4.6,7.4-3.9,12.7-5.1c2.5-0.5,2.2-0.8,3.7-1.4c0,2.2,0,4.3,0,6.5c0,2.2,0.1,3.8-0.8,5.7
	c-3.4,7.2-12.8,6.6-15.9,0.7c-0.2-0.4-0.3-0.8-0.8-0.9c-0.5-0.1-0.9,0.1-1,0.5c-0.2,0.7,0.6,1.8,0.9,2.2c1.5,2.1,1.7,1.8,3.3,3.1
	c-0.1,0.5-0.4,1.3-0.7,1.8c-0.3,0.6-0.5,1.1-1.2,1.1c-1.7,0.1-2.8-0.1-4.5,0.3c-3,0.7-5.4,2.6-7.2,4.8c-0.3,0.4-0.6,0.9-1,1.4
	c-1.3,2.1-2.2,4.5-2.6,7c-0.3,1.9-0.6,3.4,0.9,3.4h43.4c1,0,1.1-0.4,1.1-1.3c-0.2-5.5-2.9-11-7.6-13.8c-3.5-2-5-1.4-7.9-1.7
	C29.3,33,28.5,31.1,28.3,30.2 M12.3,44.4c0,0.8,0.1,3.1-0.1,3.7c-1,0.1-7.2,0-9.2,0c-0.5,0-1,0.1-1.2-0.1
	c0.5-7.1,5.2-13.3,12.4-13.3c2,0,2.8,0.5,4.2-2.3c0.2-0.5,0.4-1.1,0.7-1.5c3.4,0.9,4.2,0.8,7.6,0c0.4,0.5,0.5,1.5,1.5,2.8
	c1,1.3,1.3,1,3.3,1c7.2,0,12,6.2,12.5,13.3c-0.2,0.3-0.4,0.1-1.1,0.1c-2,0-8.3,0.1-9.3,0c-0.2-0.6-0.1-3-0.1-3.7c-0.2-1-1.5-1-1.6,0
	c0,0.7,0.1,3.1-0.1,3.7l-17.8,0c-0.1-0.6-0.1-3,0-3.7C13.8,43.5,12.5,43.5,12.3,44.4z"/>
<path class="st0" d="M7.8,14.3C6.3,14.8,6,16,6,17.9c0,1.4-0.2,4,0,5.3c0.2,1.3,1.5,2.4,3.1,2.2c0.8-0.1,1.4-0.6,1.7-1
	c0.5-0.7,0.5-1.2,0.6-2.2c1.7,0.7,3.4,2.5,8.1,3.5c1.1,0.2,0.6,1.4,2.4,1.5c1.2,0.1,2.6,0.1,3.4-0.6c0.7-0.7,0.9-2,0.3-2.9
	c-1-1.4-3.9-1.1-4.5-0.7c-0.5,0.3-0.6,0.5-0.9,0.8C20,24,20.1,23.9,20,24c-2.2-0.3-4.8-1.6-6.7-2.8c-0.6-0.3-1.6-0.8-1.9-1.4
	c0-2.3,0.4-4.9-1.8-5.5C9.8,7.5,15.8,1.7,22.8,1.7c7.1,0,13.1,5.7,13.3,12.6c-2.3,0.6-1.8,3.6-1.8,6c0,1.6-0.5,5.1,2.6,5.1
	c1.1,0,2-0.7,2.4-1.5c0.4-0.9,0.3-2.6,0.3-3.6c0-2.6,0.5-5.2-1.8-6c-0.4-4-1.7-7.4-4.6-10.1c-5.9-5.6-15-5.6-20.9,0
	C9.6,6.9,8.2,10.3,7.8,14.3 M7.8,22.9c-0.1-1.2,0-3.4,0-4.8c0-0.8-0.1-1.6,0.4-2c0.6-0.4,1.3-0.1,1.4,0.6c0.2,1,0,3.6,0,4.8
	c0,0.7,0.1,1.7-0.4,2.1C8.6,24,7.9,23.6,7.8,22.9z M37.9,23.1c-0.2,0.6-1.1,0.8-1.5,0.3c-0.5-0.6-0.2-6.8-0.2-7
	c0.2-0.5,1-0.7,1.5-0.2c0.4,0.4,0.3,1.4,0.3,2.1C37.9,19,38,22.7,37.9,23.1z M21.6,24.7c0.5-0.2,1.9-0.2,2.4,0
	c0.2,1-0.3,0.8-1.2,0.8C22,25.5,21.4,25.7,21.6,24.7z"/>
<path class="st0" d="M31.8,44.4c-0.3,0.5-0.1,2.6-0.1,3.3l0.1,0.3l-17.7,0c0-0.5,0.1-3.5-0.1-3.6c0,0.7-0.1,3.1,0,3.7l17.8,0
	C31.9,47.6,31.8,45.2,31.8,44.4"/>
<path class="st0" d="M43.9,48l-10.4,0c0-0.8,0.2-3.1-0.1-3.6c0,0.8-0.1,3.1,0.1,3.7c1,0.1,7.3,0,9.3,0C43.5,48.2,43.7,48.3,43.9,48"
	/>
<path class="st0" d="M1.8,48c0.3,0.2,0.7,0.1,1.2,0.1c2,0,8.2,0.1,9.2,0c0.2-0.6,0.1-3,0.1-3.7c-0.3,0.5-0.1,2.8-0.1,3.6L1.8,48z"/>
</svg>
