<?xml version="1.0" encoding="utf-8"?>
<!-- Generator: Adobe Illustrator 25.2.0, SVG Export Plug-In . SVG Version: 6.00 Build 0)  -->
<svg version="1.1" id="Layer_1" xmlns="http://www.w3.org/2000/svg" xmlns:xlink="http://www.w3.org/1999/xlink" x="0px" y="0px"
	 viewBox="0 0 16.2 11.3" style="enable-background:new 0 0 16.2 11.3;" xml:space="preserve">
<style type="text/css">
	.st0{fill-rule:evenodd;clip-rule:evenodd;fill:#FFFFFF;}
</style>
<path class="st0" d="M16.1,10.1c0.2-0.6,0.1-5.7,0.1-6.8c0-3.4-0.4-3.3-3.6-3.3L2.3,0c-1.2,0-2,0.2-2.2,1.3
	c-0.2,1.1-0.1,5.4-0.1,6.9c0,3.4,0.4,3.2,3.6,3.2l10.2,0C15.2,11.3,15.8,11.1,16.1,10.1 M1,1.2c0.3-0.3,0.4-0.4,1-0.4h12.3
	c0.5,0,0.7-0.1,0.9,0.3L9.2,5.4C8.9,5.6,8.5,5.7,8.1,5.6c-0.6-0.1-3-1.7-3.7-2.1C3.9,3.1,1.1,1.5,1,1.2z M0.9,2.3
	c1.6,0.9,3.7,2.3,5.4,3.3C9,7.3,9.1,6.4,12,4.4c1.2-0.8,2.3-1.7,3.4-2.4c0.1,0.8,0.1,7.1,0,7.7c-0.2,1-1.6,0.7-3.1,0.7H4.4
	C0,10.5,0.9,11.6,0.9,2.3z"/>
</svg>
