<?xml version="1.0" encoding="utf-8"?>
<!-- Generator: Adobe Illustrator 25.2.0, SVG Export Plug-In . SVG Version: 6.00 Build 0)  -->
<svg version="1.1" id="Layer_1" xmlns="http://www.w3.org/2000/svg" xmlns:xlink="http://www.w3.org/1999/xlink" x="0px" y="0px"
	 viewBox="0 0 13.5 13.7" style="enable-background:new 0 0 13.5 13.7;" xml:space="preserve">
<style type="text/css">
	.st0{fill:#FFFFFF;}
	.st1{display:none;fill:#FFFFFF;}
	.st2{display:none;fill-rule:evenodd;clip-rule:evenodd;fill:#FFFFFF;}
</style>
<path class="st0" d="M9.8,7.3h-2v6.4h-3V7.3H3.3V4.7h1.4V3c0-1.2,0.6-3,3-3l2.2,0v2.5H8.4c-0.3,0-0.6,0.1-0.6,0.7v1.5h2.3L9.8,7.3z"
	/>
<path class="st1" d="M13.2,2.8c-0.5,0.2-1,0.4-1.5,0.4c0.5-0.3,1-0.8,1.2-1.5c-0.5,0.3-1.1,0.5-1.7,0.6C10.6,1.9,10,1.6,9.2,1.6
	c-1.5,0-2.6,1.2-2.6,2.6c0,0.2,0,0.4,0.1,0.6C4.4,4.7,2.5,3.7,1.2,2.1C1,2.5,0.8,2.9,0.8,3.4c0,0.9,0.5,1.7,1.2,2.2
	c-0.4,0-0.8-0.1-1.2-0.3c0,0,0,0,0,0c0,1.3,0.9,2.3,2.1,2.6C2.7,8,2.5,8,2.2,8c-0.2,0-0.3,0-0.5,0C2.1,9,3,9.8,4.2,9.8
	c-0.9,0.7-2,1.1-3.3,1.1c-0.2,0-0.4,0-0.6,0c1.2,0.7,2.6,1.2,4,1.2c4.9,0,7.5-4,7.5-7.5c0-0.1,0-0.2,0-0.3
	C12.4,3.8,12.8,3.4,13.2,2.8z"/>
<path class="st1" d="M9.7,0.1h-6C1.7,0.1,0,1.8,0,3.8v6c0,2,1.7,3.7,3.7,3.7h6c2,0,3.7-1.7,3.7-3.7v-6C13.5,1.8,11.8,0.1,9.7,0.1
	 M6.7,3.3c-2,0-3.5,1.6-3.5,3.5c0,2,1.6,3.5,3.5,3.5c2,0,3.5-1.6,3.5-3.5C10.3,4.9,8.7,3.3,6.7,3.3z M6.7,9.1c-1.3,0-2.3-1-2.3-2.3
	s1-2.3,2.3-2.3C8,4.5,9,5.6,9,6.8S8,9.1,6.7,9.1z M11.2,3.2c0,0.4-0.4,0.8-0.8,0.8S9.6,3.6,9.6,3.2s0.4-0.8,0.8-0.8
	S11.2,2.7,11.2,3.2z M12.4,9.8c0,1.5-1.2,2.6-2.6,2.6h-6c-1.5,0-2.6-1.2-2.6-2.6v-6c0-1.5,1.2-2.6,2.6-2.6h6c1.5,0,2.6,1.2,2.6,2.6
	V9.8z"/>
<path class="st1" d="M13.1,8.3v4.7h-2.8V8.7c0-1.1-0.4-1.9-1.4-1.9c-0.8,0-1.2,0.5-1.4,1C7.4,8,7.4,8.2,7.4,8.5v4.6H4.7
	c0,0,0-7.5,0-8.3h2.8V6c0,0,0,0,0,0h0v0c0.4-0.6,1-1.4,2.5-1.4C11.7,4.6,13.1,5.8,13.1,8.3z M0.4,13.1h2.8V4.8H0.4V13.1z M3.2,2
	c0,0.8-0.6,1.4-1.4,1.4C1,3.4,0.4,2.8,0.4,2S1,0.6,1.8,0.6C2.6,0.6,3.2,1.2,3.2,2z"/>
<path class="st2" d="M13.3,4.2c0-1.1-0.9-2-2-2H2.1c-1.1,0-2,0.9-2,2v5.3c0,1.1,0.9,2,2,2h9.3c1.1,0,2-0.9,2-2V4.2z M5.4,9.1v-5
	l3.8,2.5L5.4,9.1z"/>
</svg>
