<?xml version="1.0" encoding="utf-8"?>
<!-- Generator: Adobe Illustrator 25.2.0, SVG Export Plug-In . SVG Version: 6.00 Build 0)  -->
<svg version="1.1" id="Layer_1" xmlns="http://www.w3.org/2000/svg" xmlns:xlink="http://www.w3.org/1999/xlink" x="0px" y="0px"
	 viewBox="0 0 93.9 93.5" style="enable-background:new 0 0 93.9 93.5;" xml:space="preserve">
<style type="text/css">
	.st0{fill-rule:evenodd;clip-rule:evenodd;fill:#FFFFFF;}
	.st1{display:none;fill-rule:evenodd;clip-rule:evenodd;fill:#FFFFFF;}
</style>
<g>
	<path class="st0" d="M7.6,14.2v50.2c0,5.2,5.6,6.3,10,6.3c5.4,0,10.9,0,16.3,0c-0.6,2.6-2.7,4.9-3.3,7.5c-15.2,0-15.2-1.3-12.3,4.7
		c0.6,1.2,1.2,3.2,2.7,3.2h51.9c2,0,4.2-6.7,4.2-6.7c0-2-4.3-1.3-6.3-1.3c-2.5,0-5,0-7.5,0c-0.6-2.6-2.7-4.9-3.3-7.5
		c4.9,0,19.9,0.7,23.1-1.1c1.5-0.9,3.2-3,3.2-5.1V14.2c0-3.8-2.9-6.7-6.7-6.7H14.3C10.6,7.5,7.6,10.4,7.6,14.2 M14.3,27.1
		c0,2.8-0.1,4.5,1.3,7.1c0.7,1.4,1.7,2.2,2.5,3.4c-5.9,0-4.6,1.3-7.5,2.1c0-2.6-0.6-25.8,0.5-27.6c0.4-0.6,1.6-1.7,2.5-1.7h66.9
		c1.2,0,2.9,1.8,2.9,2.9v45.2H54.9c0-9.7,2-7.9-11.7-7.9v-3.3c0-5.3-3.9-9.6-9.2-9.6c3.2-4.8,3.8-3.7,3.8-10.5
		c0-5.4-5.4-10.5-12.1-10.5C20,16.7,14.3,21.7,14.3,27.1z M25.2,19.6c14.1,0,11.8,18,0.8,18C14.3,37.6,14.4,19.6,25.2,19.6z
		 M15.6,58.5h-5V45.9c0-2.6,2.9-5.4,5.4-5.4h18.8c2.6,0,4.8,2.4,5.3,4.8c0.5,2.5-1,8.2,1.8,8.2h10v5H39.4c-5.1,0-4.2-5.7-4.2-9.2
		h-2.9c0,3.8-0.4,6.1,1.3,9.2H18.5c0-10.3,0.8-9.2-2.9-9.2V58.5z M10.6,63.9v-2.5h72.8c0,2.8,0.5,6.3-4.6,6.3H15.2
		C12.6,67.7,10.6,66.5,10.6,63.9z M38.2,70.6h17.6c1.4,0,3.4,5.2,4.6,7.5H33.6C34.8,75.9,36.7,70.6,38.2,70.6z M20.6,81.1h52.7
		c-0.5,0.9-0.6,1-0.8,2.1h-51C21.2,82.1,21.1,81.9,20.6,81.1z"/>
	<rect x="46.3" y="17.7" class="st0" width="33.5" height="3.1"/>
	<rect x="46.3" y="28.7" class="st0" width="33.5" height="3.1"/>
	<rect x="46.3" y="34.4" class="st0" width="14.1" height="2.6"/>
	<rect x="68.3" y="23.4" class="st0" width="11.5" height="2.6"/>
	<rect x="57.3" y="23.4" class="st0" width="8.8" height="2.6"/>
	<rect x="46.3" y="23.4" class="st0" width="8.8" height="2.6"/>
</g>
<path class="st1" d="M28.2,36.3c0.3-0.8,0.8-1.9,1.3-2.4c-0.1-1.8,0.8-3.2,0.4-6c-0.4-2.2-1.5-3.6-2.2-5.2c-1.6-1-6.6-7.1-14.5-2.6
	c-3.5,2-5.7,5.6-5.6,9.8c0,2.1,0.7,3.1,0.7,4.6l0.6,0.7c0.2,0.3,0.4,0.6,0.5,0.9l1.2,1.6c-1.7,1.5-3.4,2.1-5.5,5
	c-1.6,2.2-2.2,3.6-2.8,6.2l-0.4,1.3v2.4l5.7,0C8.1,39.2,24.4,37.6,29,47.6c0.8,1.6,0.8,2.6,1.1,4.7l5.6,0.2c-0.1-5-0.9-14.6,2-17.6
	c0.6-1.2,1.8-2.5,3.1-3.1c4.1-3.9,14.9-2,16.8,5.7c-4.2,0.9-9.9,6.2-12.4,10.1c-0.7,1.1-1.9,4.2-2.4,4.8c-0.2,0.8-0.4,1.9-0.9,2.4
	c0.1,1.9-0.9,4.5-0.3,9.3c0.5,4,2.1,6.7,2.1,7.8c0.2,0.2,0.2,0.2,0.4,0.5c0.1,0.2,0.3,0.5,0.4,0.6c0.2,0.4,0.4,0.7,0.6,1.1
	c4.3,6,8.5,9.5,15.7,11.4c1,0.3,2.5,0.4,3.3,0.7h5.4c1-0.5,3.8-0.6,7.1-2c3.4-1.5,3.6-2.2,5.8-3.3c0.9-0.9,1-1.2,2.1-1.7
	c0.1-0.3-0.1-0.1,0.2-0.4c0.3-0.3,0.1-0.1,0.4-0.2c0.4-1.1,0.9-1.3,1.7-2.1c1.8-3.3,3-3.7,4.4-9.1c0.3-1.2,0.4-2.7,0.8-3.7v-5.5
	c-0.1-0.3-1.4-5.2-1.5-5.8l1.5,0v-2.2c-0.5-1-0.6-2.4-1-3.5c-0.4-1.1-1-2.3-1.6-3.2c-1.3-2-2.8-3.4-4.5-4.8c-0.4-0.2-1.1-0.7-1.6-1
	c0.9-1.1,2.2-3,2.7-5c0.9-3.4-0.3-4.5-0.2-6.8c-0.6-0.6-0.6-1-1.1-1.8c-1.1-1.8-2.6-3.3-4.7-4.3c-6.3-2.9-13.3,0.1-15.5,6
	c-1.5,4.2-0.7,6.5,0.8,9.9L62.9,36c-0.5-2.5-3.2-6.3-5.1-7.7c-0.8-0.6-2-1.3-2.7-1.9c1.1-1.8,2-1.9,2.8-5.5
	c1.5-6.6-3.6-13.5-11-13.5c-7.1,0-12.4,6.6-11.1,13.4c0.7,3.4,1.8,3.9,2.9,5.7c-0.8,0.8-2.4,1.6-3.2,2.4c-1.8,1.6-3.5,4.3-4.4,6.6
	c-0.7,2-0.7,3.3-1,4c-0.2,0.6,0.1,0.1-0.3,0.6c-0.9-1.2-1.7-1.2-2.8-2.3C27.3,37.1,27.6,36.6,28.2,36.3 M52.5,19.3
	c-1.2,7.4-11.9,6-11.1-1.5c0.3-3,3-5.3,6.6-4.8C50.8,13.4,53,16.1,52.5,19.3z M13.3,28.4c0.8-2.2,2.2-3.9,4.8-4.1
	c3.1-0.3,5,1.3,5.8,3.4c0.9,1.6,0.5,4-0.4,5.3c-0.9,1.2-2.1,2.3-4.2,2.5C15.5,35.9,12.3,32.3,13.3,28.4z M69.6,31.1
	c-0.8-3.3,1.7-6.2,4.2-6.7c3.5-0.7,6.3,1.6,6.9,4.3C82.1,36,71.4,38.2,69.6,31.1z M56.7,77.7c-1-0.3-1.2-0.7-2.1-1.2
	c-8.7-7-10-19-3.9-27.3c5.7-7.6,17-11.3,27.3-4.5c12.8,8.5,10.9,30.4-5.9,35.2C67.3,81.3,58.5,80.4,56.7,77.7z"/>
<path class="st1" d="M18.4,11.7c0.8,3.5,1.2,7,2.2,10.5c5.6,19.3,11.9,23,12.5,25.6c-6.5,0-3.4-0.8-7.5-3.2c-1.8-1.1-5-3.4-6.8-3.9
	c-0.4,0.9-0.5,0.9-1,1.5c1.8,2.8,6.7,3.7,8.6,6.6C26,50.9,19,60.6,17.3,63c-1.1,1.5-2.1,3.7-3.5,4.7c-3.2-0.7-9.5-7.4-12.7-8.1
	L0,60.9c0.9,1.3,1.9,1.7,3.1,2.6c4.3,3,12,10.6,13.7,4.1c1.8,1.2,2,1.7,3.1,3.6c-0.7,1.1-4.1,4.9-0.4,8c0.8,0.7,0.4,0.5,1.7,0.9
	c0.6,0.2,1,0.2,1.2,0.3c3.6,1.2,0.2,5.1,7.7,5.1c0.3,3.6,1.9,3.7,4.6,4.5c4.4,1.3,0.2,3.6,7.1,3.6c1.7,0,1.1-1,2-1
	c0.8,0,7.6,1.9,8.1-4.6c4.1,2.2,8.7,2.6,9.2-3.1c5.5,0.5,6,1.5,8.6-4.1c6.8,3.2,10.2-3.3,7.4-7.4c-0.8-1.2-16.7-12-17.8-12.3
	c-3-0.7-9,0.9-9.5-5.7H38.2c-0.3,3.2-1.3,6.3-4.6,6.6v-7.1c8.6-4.6,5.2-4.6,13.7-4.6c6.1,0,12.2,0,18.3,0C66.2,52.3,74.3,63.7,76,66
	c4.9,6.6,4.7,5.2,12.6-0.4c5.7-4,5.8-3.2,5.1-6.1c-1.8,0.1-2.2,0.7-3.4,1.7c-2.3,1.8-7.6,6.4-10.3,6.5c-0.8-3.1-11.5-16.1-12.2-18.8
	c0.9-1.4,7.2-5.2,8.6-5.6c-0.2-2.2,0.1-0.9-1-2.5c-1.5,0.4-4.7,2.7-6.4,3.8c-3.8,2.3-1.9,3.3-7.3,3.3c4.2-6.2,6.2-8,9.2-15.7
	c1.7-4.2,5-14.7,5-20.4c-4.5-0.1-12.8-2.5-16.4-3.9C50.6,4.3,50.8,2.6,46.8,0C43.1,5.6,27.8,11.5,18.4,11.7 M21.4,13.7
	C29,13.7,44,7.8,46.8,3.6c1.7,1.2,3.4,2.5,5.1,3.5c5.2,3,14.8,6.6,20.8,6.6c0,8.1-5.4,21-9.7,27.5c-1,1.5-4.4,6.6-6.1,6.6H37.7
	c-1.7,0-4.8-4.9-5.8-6.4C26.9,33.9,22.6,23.2,21.4,13.7z M31.1,54.4c0,11.1-0.8,10.2,3.1,10.2c3.3,0,5.8-3.5,6.1-6.6h7.6
	c0.8,2.8,2.9,4.5,6,5.2c5.7,1.4,2.1-1.5,8.4,2.8c2.3,1.6,4.3,2.9,6.7,4.5c5.1,3.4,6.4,3.2,6.4,6.8c0,5.3-8.7-1.9-9.7-2.5
	c-1.9-1.3-8.6-6.2-10.2-6.6l-0.9,1.1c0.4,1.7,1,1.9,2.5,2.9c3.6,2.4,8.3,4.9,10.1,8.2c-2.2,4.1-3.2,3.1-9.4-1.3
	c-1.6-1.1-5.3-3.9-6.9-4.3c-1.1,1.6-0.8,0.4-1,2.5c1,0.3,8.6,4.6,8.6,6.6c0,6.6-6.6,0.8-9.1-1c-1.3-0.9-0.9-1.1-2.6-1.5
	c-1.1,1.6-0.8,0.4-1,2.5c6.7,1.8,2.3,8.4,0,6.1c-0.8-0.8,1.7-3.3-3.6-6.1c0.1-0.5,2.8-5.1-1.5-7.7c-1.9-1.1-3.6-0.9-5.6,0
	c-1.7-3.1-4-4.3-7.6-2.5c-2.3-4.3-1.9-1.8-4.8-3.3l-3.9-4.8c1.3-2.4,3.3-5.5,5-7.7c1.9-2.5,3.4-5,5.2-7.5h7.1
	C34,52.3,31.1,52.1,31.1,54.4z M20.4,75.2c0-2.7,5.1-3.1,5.1,0.5c0,3.2-4,1.7-4.6,1.5C20.6,75.9,20.4,76.3,20.4,75.2z M30.1,75.8
	c3.5,0,3.4,2.2,2.4,3.9c-0.1,0.1-1.5,2-1.6,2.1c-0.7,0.7-1.2,1.2-2.3,1.1c-2.8-0.2-3-2.8-0.7-5.6C28.6,76.4,28.9,75.8,30.1,75.8z
	 M32.6,85.4c0-4.7,7.6-10.8,8-5c0.1,1.4-3.7,6.8-5.5,7C33.9,87.4,32.6,86.8,32.6,85.4z M40.7,91c-1.2,0-2-0.8-2-2
	c0-1.5,2.1-3.6,3.8-1.8C44.3,88.9,42.2,91,40.7,91z"/>
<path class="st1" d="M42.9,3.6l0,2.3l-6.7,2.8l-3.4-3.4c-1.7,0.9-4.4,3.7-5.3,5.2c0.7,1.6,2.1,2.8,3.3,3.7l-2.7,6.5
	c-5.2,0.5-5.2-1.9-5.2,5.9l0.5,2c5.8,0.4,4.5-0.2,5.8,3.3c0.6,1.5,1.1,2.1,1.6,3.6l-3.4,3.5c1.2,1.6,3.7,4.4,5.3,5.3
	c1.7-0.8,2.7-2.1,3.7-3.3c1,0.3,5.1,2,6.4,2.7c0.7,5.5-2.1,5.2,6,5.2c3.5,0,1.6-0.1,2.3-5.2c1.3-0.6,5.4-2.4,6.4-2.7
	c0.9,1.2,2,2.6,3.7,3.3c1.4-0.6,4.6-3.8,5.1-5.2L63,35.3c0.3-1.1,2-5.3,2.7-6.5l4.7-0.2l0.5-3c0-0.5,0-2.9,0-3.3
	c-0.4-2.5-0.6-1.3-5.2-1.7L63,14.2c1.2-0.9,2.6-2,3.3-3.7c-0.8-1.5-3.6-4.3-5.1-5.1l-3.6,3.2c-1.2-0.4-2-0.9-3.2-1.4
	c-0.6-0.2-1.2-0.3-1.7-0.6c-2.2-0.9-0.9,0.1-1.7-1.2c-1-3.6,3.4-4.6-5.8-4.6C42.5,0.8,42.9,1.2,42.9,3.6 M43.9,78.5
	c1.4,3.8,0.2,1.6,0,6c-2.9-3-2.6-8.9-2.6-12.5c-1.7-0.1-4.8,1.6-6.8,2.2c-1.9,0.6-5.1,0.9-6.4,2.3c-1.8,1.8-2.2,13.2-1.5,15.8
	c2.7,0.7,38,0.7,40.7,0c0.7-2.8,0.3-13.9-1.5-15.7c-0.3-0.3-12.5-4.7-13.4-4.8c0.3,5.2-0.2,9-2.2,13c-2.2-5.6-0.4-5.3,0-6.8
	c-1.3-1.3-1.7-2.3-3.7-2.8l-2.7,2.5L43.9,78.5z M45.2,78c0.6-0.4,1.3-1.1,1.7-1.3c0.6,0.4,0.9,0.6,1.5,0.9c-0.7,3-1.3,1-0.2,4.4
	c0.6,2,0.1,3.6,1,5.4c1.1-0.3,0.7-0.1,1.3-1c2.6-3.5,2.9-10.4,3.3-13c11.5,6,12.6-1.8,12.5,17.8l-38.9,0c0-2.4,0.3-12.5,1.2-13.9
	c0.6-0.9,9.5-3.4,11.3-3.9c-0.1,3.2,1.1,12.1,4.2,14.1c0.5-0.5,0.3-0.1,0.6-0.9c0.5-1.4,0.2-2.9,0.6-4.5C46,80,46.7,79.6,45.2,78z
	 M70.8,71.2c-0.1,0.9-0.6,2.1-0.9,2.6c-1.6-4.7-1.4-4.7-1.6-10c-1.2,0-5.6,1.7-7.5,2.3c-3.9,1.1-4.3,1-4.5,5.6
	c1.7,0.4,7,1.8,8.5,2.5c4.6,1.9,2.7,5.6,4.4,6.6c0.8,0.5,9.1,0.2,10.7,0.2c1.8,0,3.7,0,5.5,0c0.5,0,2.2,0,2.6-0.1
	c4.2-1,0.7-13,0.1-13.5c-0.6-0.5-10.2-3.6-10.9-3.6c0,5.5,0,5.2-1.5,10.1c-1.8-3.2-0.6-3-0.3-5.1c-1-1-1.4-1.7-2.9-2.3l-2.3,2.3
	L70.8,71.2z M72.5,67.9c3,1.4,0.2,0.5,1,3.5c0.4,1.6,0.6,4.4,1.2,5.5c2.8-1.3,3.9-7.7,3.8-11.5c1.3,0.4,8.3,2.5,8.9,3.2
	c1.1,1.3,1.3,9.1,1.1,11.1l-18.9,0c-1.3-9.3-6.8-5.6-12-9.1c0.1-2.7,1.2-2.7,3.7-3.4c2-0.5,3.8-1.3,5.6-1.8
	c-0.1,3.8,1,10.3,3.8,11.5c0.6-1.2,0.6-3.6,1.1-5.2C73,68.1,70.5,70.2,72.5,67.9z M18.4,68.7c0.7,1.8,1,2.7-0.3,5.1
	c-1.5-4.7-1.6-4.7-1.5-10.1c-0.9,0-10.7,3.4-11.2,3.9c-0.7,0.8-3,11.7-0.3,13c0.7,0.4,0.2,0.2,1,0.3c0.5,0.1,2.1,0,2.7,0
	c3.7,0,14.8,0.7,15.9-0.4c1-0.9,0.2-2.4,1.3-4.2c0.6-1,1.8-1.9,3.2-2.3c2.3-0.8,6.1-1.9,8.2-2.3c-0.1-4.7-0.9-4.6-4.8-5.6
	c-1.9-0.5-5.9-2.2-7.2-2.2c-0.2,5.4,0,5.1-1.6,10c-1.7-3.1-0.5-3-0.3-5.1l-2.4-2.3C19.8,66.9,19.4,67.7,18.4,68.7z M21.3,67.9
	c2.1,2.4-0.4,0.1,0.6,3.8c0.5,1.8,0.5,4,1,5.2c2.9-1.3,3.9-7.7,3.8-11.5c1.9,0.5,3.6,1.3,5.6,1.8c2.7,0.7,3.5,0.5,3.8,3.4
	C30,73.7,25.3,70.8,24,79.7l-18.8,0c-0.1-2,0.1-9.6,1-10.9c0.8-1.2,7.5-3,9.1-3.4c0,3.8,0.9,10.2,3.8,11.5c0.6-1.1,0.6-3.5,1.1-5.2
	c0-0.2,0.3-0.9,0.3-1C20.7,68.1,18.6,69.1,21.3,67.9z M35.6,27.9c1.5,5.3,7.1,9.9,14,8.2c5.4-1.3,10.4-6.9,8.6-14.1
	c-1.3-5.5-6.9-10.6-14.4-8.6C38.5,14.8,33.6,20.5,35.6,27.9z M36.6,26.5C34.4,12.4,55.2,9.9,57.3,23c1,6.3-3.5,11.2-8.6,12.1
	C42.4,36.1,37.4,31.7,36.6,26.5z M44.1,51.6c-2.2,0.8-4.6,3-5.6,4.7c-0.9,1.6-0.4,2.3-1,4c-1.7,4.7-1,2.2,1.8,7.3
	c0.7,1.3,1.3,2,2.2,2.8c4.2,3.8,9.8,2.5,13.1-3.5c1.2-2.2,1.5-1.4,2.1-3c0.4-1.4-1.3-7.2-2-8C52.1,52.8,49.1,49.7,44.1,51.6z
	 M45.2,52.6c2.6-0.7,5.1,0.4,6.5,1.7c0.5,0.5,0.6,0.7,1.1,1.2c2.9,3.2,1.1,1.8,1.9,4.9c0.4,1.7,1.5,1.8,0.7,3.4l-0.9,1
	c-0.1,0.1-0.2,0.2-0.2,0.2c-0.7,0.9-1.9,4.7-5.2,5.8c-4.4,1.5-7.3-1.3-8.9-4.5c-0.6-1.2-1.7-2.5-1.9-2.8c-0.7-1.9,0.3-1.3,0.8-3.6
	c0.4-1.8-0.2-2.2,1-3.7C40.9,55.2,43.4,53,45.2,52.6z M18.5,47c-1.9,0.8-3.8,2.4-4.5,3.9c-0.6,1.4-1.7,5.2-0.9,6.7
	c3.5,6.8,9.5,9.9,14.5,1.9c2.1-3.4,2.1-1.8,1-6c-0.9-3.3-0.8-3.5-3.2-5.4C23.5,46.5,21.2,45.8,18.5,47z M28.2,56.3l-2.8,4.6
	c-1.6,2.1-6.6,3.9-9.5-1.5l-1.5-2.2c-1-1.7-0.3-1.2,0.1-2.6c1.2-4-0.2-2.1,2.5-4.9c1.3-1.3,2.4-2.5,5.1-2c1.8,0.3,3.4,2.2,4.2,3.1
	c1.4,1.5,0.7,0.6,1,2.7C27.7,56.1,27.6,54.2,28.2,56.3z M70.3,47c-1.4,0.6-3.9,2.7-4.5,3.9c-0.6,1.4-1.7,5.2-0.9,6.7
	c3.4,6.6,9.5,10,14.5,1.9c2.1-3.4,2.1-1.7,1-6c-0.8-3.1-1.1-3.9-3.2-5.5C75.6,46.7,72.7,45.9,70.3,47z M65.7,56.3
	c0.4-1.6,1.1-4.6,2.1-5.7c1.1-1.2,2.2-2.9,4.8-3c2.7-0.1,6,2.8,6.4,5.5c0.7,4.2,2.1,1.4-1.5,7.2c-0.8,1.3-2.2,2.5-4.5,2.6
	C68.4,63.1,68,59.3,65.7,56.3z M44.1,2l5.6,0l0.2,5c1.6,0.5,2.6,0.7,4.1,1.4c1.3,0.6,2.2,1.2,3.5,1.7L61.1,7l3.7,4l-3.2,3.2
	c0,0,3,7.4,3.2,7.7l4.8,0.2l0,5.3l-4.9,0.4c-0.4,0.6-2.8,6.5-3.3,7.5l3.3,3.6c-1.2,1.3-2.4,3-4.1,3.7l-3.2-3.2
	c-1.4,0.5-2.3,1.2-3.7,1.7c-1.3,0.5-2.9,0.9-4,1.3l-0.2,5l-5.4,0l-0.1-5c-1.1-0.4-2.8-0.8-4-1.3c-1.4-0.6-2.3-1.2-3.7-1.8l-3,3.3
	c-1.8-0.8-3.1-2.5-4.3-3.9l3.3-3.6c-0.5-1.1-2.7-6.6-3.2-7.6l-4.9-0.3l0-5.3l5.1,0c0.8-2.9,2.5-5.9,3-7.8l-3.4-3.2L33,7l3.3,3.1
	c1.3-0.5,2.4-1.2,3.8-1.8C41.4,7.8,43,7.4,44.1,7L44.1,2z"/>
</svg>
