<?xml version="1.0" encoding="utf-8"?>
<!-- Generator: Adobe Illustrator 25.2.0, SVG Export Plug-In . SVG Version: 6.00 Build 0)  -->
<svg version="1.1" id="Layer_1" xmlns="http://www.w3.org/2000/svg" xmlns:xlink="http://www.w3.org/1999/xlink" x="0px" y="0px"
	 viewBox="0 0 87.2 92.9" style="enable-background:new 0 0 87.2 92.9;" xml:space="preserve">
<style type="text/css">
	.st0{fill-rule:evenodd;clip-rule:evenodd;fill:#FFFFFF;stroke:#FFFFFF;stroke-miterlimit:10;}
</style>
<path class="st0" d="M39.6,3.3l0,2.3l-6.7,2.8L29.5,5c-1.7,0.9-4.4,3.7-5.3,5.2c0.7,1.6,2.1,2.8,3.3,3.7l-2.7,6.5
	c-5.2,0.5-5.2-1.9-5.2,5.9l0.5,2c5.8,0.4,4.5-0.2,5.8,3.3c0.6,1.5,1.1,2.1,1.6,3.6l-3.4,3.5c1.2,1.6,3.7,4.4,5.3,5.3
	c1.7-0.8,2.7-2.1,3.7-3.3c1,0.3,5.1,2,6.4,2.7c0.7,5.5-2.1,5.2,6,5.2c3.5,0,1.6-0.1,2.3-5.2c1.3-0.6,5.4-2.4,6.4-2.7
	c0.9,1.2,2,2.6,3.7,3.3c1.4-0.6,4.6-3.8,5.1-5.2L59.7,35c0.3-1.1,2-5.3,2.7-6.5l4.7-0.2l0.5-3c0-0.5,0-2.9,0-3.3
	c-0.4-2.5-0.6-1.3-5.2-1.7l-2.7-6.5c1.2-0.9,2.6-2,3.3-3.7c-0.8-1.5-3.6-4.3-5.1-5.1l-3.6,3.2C53,8,52.2,7.4,51,6.9
	c-0.6-0.2-1.2-0.3-1.7-0.6c-2.2-0.9-0.9,0.1-1.7-1.2c-1-3.6,3.4-4.6-5.8-4.6C39.2,0.5,39.6,0.9,39.6,3.3 M40.6,78.2
	c1.4,3.8,0.2,1.6,0,6c-2.9-3-2.6-8.9-2.6-12.5c-1.7-0.1-4.8,1.6-6.8,2.2c-1.9,0.6-5.1,0.9-6.4,2.3c-1.8,1.8-2.2,13.2-1.5,15.8
	c2.7,0.7,38,0.7,40.7,0c0.7-2.8,0.3-13.9-1.5-15.7c-0.3-0.3-12.5-4.7-13.4-4.8c0.3,5.2-0.2,9-2.2,13c-2.2-5.6-0.4-5.3,0-6.8
	c-1.3-1.3-1.7-2.3-3.7-2.8l-2.7,2.5L40.6,78.2z M41.9,77.7c0.6-0.4,1.3-1.1,1.7-1.3c0.6,0.4,0.9,0.6,1.5,0.9c-0.7,3-1.3,1-0.2,4.4
	c0.6,2,0.1,3.6,1,5.4c1.1-0.3,0.7-0.1,1.3-1c2.6-3.5,2.9-10.4,3.3-13C62,79.2,63.2,71.4,63,91l-38.9,0c0-2.4,0.3-12.5,1.2-13.9
	c0.6-0.9,9.5-3.4,11.3-3.9c-0.1,3.2,1.1,12.1,4.2,14.1c0.5-0.5,0.3-0.1,0.6-0.9c0.5-1.4,0.2-2.9,0.6-4.5
	C42.7,79.7,43.3,79.3,41.9,77.7z M67.5,70.9c-0.1,0.9-0.6,2.1-0.9,2.6c-1.6-4.7-1.4-4.7-1.6-10c-1.2,0-5.6,1.7-7.5,2.3
	c-3.9,1.1-4.3,1-4.5,5.6c1.7,0.4,7,1.8,8.5,2.5c4.6,1.9,2.7,5.6,4.4,6.6c0.8,0.5,9.1,0.2,10.7,0.2c1.8,0,3.7,0,5.5,0
	c0.5,0,2.2,0,2.6-0.1c4.2-1,0.7-13,0.1-13.5c-0.6-0.5-10.2-3.6-10.9-3.6c0,5.5,0,5.2-1.5,10.1c-1.8-3.2-0.6-3-0.3-5.1
	c-1-1-1.4-1.7-2.9-2.3l-2.3,2.3L67.5,70.9z M69.2,67.6c3,1.4,0.2,0.5,1,3.5c0.4,1.6,0.6,4.4,1.2,5.5c2.8-1.3,3.9-7.7,3.8-11.5
	c1.3,0.4,8.3,2.5,8.9,3.2c1.1,1.3,1.3,9.1,1.1,11.1l-18.9,0c-1.3-9.3-6.8-5.6-12-9.1c0.1-2.7,1.2-2.7,3.7-3.4c2-0.5,3.8-1.3,5.6-1.8
	c-0.1,3.8,1,10.3,3.8,11.5c0.6-1.2,0.6-3.6,1.1-5.2C69.7,67.8,67.1,69.9,69.2,67.6z M15.1,68.4c0.7,1.8,1,2.7-0.3,5.1
	c-1.5-4.7-1.6-4.7-1.5-10.1c-0.9,0-10.7,3.4-11.2,3.9c-0.7,0.8-3,11.7-0.3,13c0.7,0.4,0.2,0.2,1,0.3c0.5,0.1,2.1,0,2.7,0
	c3.7,0,14.8,0.7,15.9-0.4c1-0.9,0.2-2.4,1.3-4.2c0.6-1,1.8-1.9,3.2-2.3c2.3-0.8,6.1-1.9,8.2-2.3c-0.1-4.7-0.9-4.6-4.8-5.6
	c-1.9-0.5-5.9-2.2-7.2-2.2c-0.2,5.4,0,5.1-1.6,10c-1.7-3.1-0.5-3-0.3-5.1l-2.4-2.3C16.5,66.6,16.1,67.4,15.1,68.4z M17.9,67.6
	c2.1,2.4-0.4,0.1,0.6,3.8c0.5,1.8,0.5,4,1,5.2c2.9-1.3,3.9-7.7,3.8-11.5c1.9,0.5,3.6,1.3,5.6,1.8c2.7,0.7,3.5,0.5,3.8,3.4
	c-6.2,3.1-10.9,0.3-12.2,9.1l-18.8,0c-0.1-2,0.1-9.6,1-10.9c0.8-1.2,7.5-3,9.1-3.4c0,3.8,0.9,10.2,3.8,11.5c0.6-1.1,0.6-3.5,1.1-5.2
	c0-0.2,0.3-0.9,0.3-1C17.4,67.8,15.3,68.8,17.9,67.6z M32.3,27.6c1.5,5.3,7.1,9.9,14,8.2c5.4-1.3,10.4-6.9,8.6-14.1
	c-1.3-5.5-6.9-10.6-14.4-8.6C35.2,14.5,30.2,20.2,32.3,27.6z M33.2,26.2c-2.2-14.2,18.7-16.7,20.7-3.5c1,6.3-3.5,11.2-8.6,12.1
	C39.1,35.8,34,31.4,33.2,26.2z M40.8,51.3c-2.2,0.8-4.6,3-5.6,4.7c-0.9,1.6-0.4,2.3-1,4c-1.7,4.7-1,2.2,1.8,7.3
	c0.7,1.3,1.3,2,2.2,2.8c4.2,3.8,9.8,2.5,13.1-3.5c1.2-2.2,1.5-1.4,2.1-3c0.4-1.4-1.3-7.2-2-8C48.7,52.5,45.8,49.4,40.8,51.3z
	 M41.9,52.3c2.6-0.7,5.1,0.4,6.5,1.7c0.5,0.5,0.6,0.7,1.1,1.2c2.9,3.2,1.1,1.8,1.9,4.9c0.4,1.7,1.5,1.8,0.7,3.4l-0.9,1
	c-0.1,0.1-0.2,0.2-0.2,0.2c-0.7,0.9-1.9,4.7-5.2,5.8c-4.4,1.5-7.3-1.3-8.9-4.5c-0.6-1.2-1.7-2.5-1.9-2.8c-0.7-1.9,0.3-1.3,0.8-3.6
	c0.4-1.8-0.2-2.2,1-3.7C37.5,54.9,40,52.7,41.9,52.3z M15.2,46.7c-1.9,0.8-3.8,2.4-4.5,3.9C10.1,52,9,55.8,9.8,57.3
	c3.5,6.8,9.5,9.9,14.5,1.9c2.1-3.4,2.1-1.8,1-6c-0.9-3.3-0.8-3.5-3.2-5.4C20.2,46.2,17.9,45.5,15.2,46.7z M24.8,56L22,60.6
	c-1.6,2.1-6.6,3.9-9.5-1.5L11,56.9c-1-1.7-0.3-1.2,0.1-2.6c1.2-4-0.2-2.1,2.5-4.9c1.3-1.3,2.4-2.5,5.1-2c1.8,0.3,3.4,2.2,4.2,3.1
	c1.4,1.5,0.7,0.6,1,2.7C24.4,55.8,24.3,53.8,24.8,56z M66.9,46.7c-1.4,0.6-3.9,2.7-4.5,3.9c-0.6,1.4-1.7,5.2-0.9,6.7
	c3.4,6.6,9.5,10,14.5,1.9c2.1-3.4,2.1-1.7,1-6c-0.8-3.1-1.1-3.9-3.2-5.5C72.3,46.4,69.4,45.6,66.9,46.7z M62.3,56
	c0.4-1.6,1.1-4.6,2.1-5.7c1.1-1.2,2.2-2.9,4.8-3c2.7-0.1,6,2.8,6.4,5.5c0.7,4.2,2.1,1.4-1.5,7.2c-0.8,1.3-2.2,2.5-4.5,2.6
	C65,62.8,64.6,59,62.3,56z M40.8,1.7l5.6,0l0.2,5c1.6,0.5,2.6,0.7,4.1,1.4c1.3,0.6,2.2,1.2,3.5,1.7l3.6-3.2l3.7,4l-3.2,3.2
	c0,0,3,7.4,3.2,7.7l4.8,0.2l0,5.3l-4.9,0.4C61,28.1,58.6,34,58.1,35l3.3,3.6c-1.2,1.3-2.4,3-4.1,3.7l-3.2-3.2
	c-1.4,0.5-2.3,1.2-3.7,1.7c-1.3,0.5-2.9,0.9-4,1.3l-0.2,5l-5.4,0l-0.1-5c-1.1-0.4-2.8-0.8-4-1.3c-1.4-0.6-2.3-1.2-3.7-1.8l-3,3.3
	c-1.8-0.8-3.1-2.5-4.3-3.9l3.3-3.6c-0.5-1.1-2.7-6.6-3.2-7.6L20.8,27l0-5.3l5.1,0c0.8-2.9,2.5-5.9,3-7.8l-3.4-3.2l4.2-4L33,9.8
	c1.3-0.5,2.4-1.2,3.8-1.8c1.3-0.5,2.8-0.9,3.9-1.3L40.8,1.7z"/>
</svg>
