<?xml version="1.0" encoding="utf-8"?>
<!-- Generator: Adobe Illustrator 25.2.0, SVG Export Plug-In . SVG Version: 6.00 Build 0)  -->
<svg version="1.1" id="Layer_1" xmlns="http://www.w3.org/2000/svg" xmlns:xlink="http://www.w3.org/1999/xlink" x="0px" y="0px"
	 viewBox="0 0 79.2 62.7" style="enable-background:new 0 0 79.2 62.7;" xml:space="preserve">
<style type="text/css">
	.st0{display:none;}
	.st1{display:inline;}
	.st2{display:inline;clip-path:url(#SVGID_3_);fill:url(#SVGID_5_);}
	.st3{clip-path:url(#SVGID_6_);fill:url(#SVGID_7_);}
	.st4{display:inline;clip-path:url(#SVGID_8_);fill:url(#SVGID_9_);}
</style>
<g class="st0">
	<defs>
		<path id="SVGID_4_" d="M21.1,41.3c-0.3,0-0.9-0.2-1.3-0.2c-0.8-0.1-1.9,0.1-2.6,0.4c-0.7,0.3-2.5,2.1-3.2,2.6l-3.7,3.5
			c-0.4,0.7-0.2,1.5,0.4,2c0.6,0.5,1,0.9,1.5,1.4c1,0.9,1.9,1.8,3.1,2.8l9.1,8.3c0.8,0.5,1.7,0.4,2.3-0.1c1.5-1.3,3.1-3,4.5-4.2
			c1.4-1.2,2.5-2.2,2.3-4.2c0-0.3-0.2-0.3-0.1-0.5c0.1-0.4,1.8-1.4,2.6-1.7c1.4-0.4,4.2-0.3,5.8-0.3c2,0,4,0,6,0
			c1.6,0,6,0.3,7.3-0.3c0.7-0.3,0.4-0.1,0.9-0.5c0.3-0.2,1.5-1.4,1.8-1.8l7.1-8.1c0.2-0.3,0.4-0.5,0.7-0.8c0.6-0.6,2.4-2.6,2.7-3.1
			c1.2-2.1,0.4-4.6-1.8-5.7c-0.6-0.3-1.6-0.5-2.5-0.5c-1.7,0.1-2.7,1.1-3.8,2.1l-2,1.7c-0.1,0.1-0.3,0.2-0.4,0.3l-3.1,2.8
			c-1,0.9-0.5,0.5-1.8,0c-0.4-0.2-0.7-0.2-1.1-0.3c-0.9-0.3-10.7,0.1-12-0.1c-1-0.1-2.3-0.8-3.3-1.1c-0.3-0.1-0.9-0.3-1.3-0.3
			c-0.4,0-0.4,0-0.7-0.1c-0.3-0.1-0.3-0.1-0.6-0.1c-2.4,0-4.4-0.1-6.6,0.9c-2.2,1-1.8,0.8-4,2.3L22,40.1c-0.1,0.2-0.2,0.3-0.3,0.4
			c-0.1,0.2-0.2,0.1-0.3,0.4C21.3,41.1,21.2,41.2,21.1,41.3 M66.5,35.1c-0.2,0.8-1.1,1.5-1.7,2.1c-0.9,1-2.1,2.4-2.9,3.4l-2.2,2.5
			c-0.2,0.2-0.1,0.2-0.4,0.5L58,45c-0.3,0.4-0.5,0.6-0.9,1c-0.2,0.2-0.3,0.4-0.6,0.7c-2.6,2.7-1,2.3-6.8,2.3c-1.3,0-12.7-0.1-13.3,0
			l-1.1,0.2c-0.7,0.1-2,0.9-2.5,1.3c-0.8,0.7-0.7,0.7-1.5-0.1c-2.7-2.5-5.3-4.8-8-7.3c-0.4-0.4-0.1-0.5,0.1-0.8
			c0.6-1,1.5-1.9,2.5-2.6c0.5-0.4,1.2-0.8,1.7-1.1l0.7-0.3c0.6-0.2,1.4-0.6,2-0.6c0.5-0.1,0.1-0.1,1.2-0.2c1.7-0.1,0.7-0.2,2.5,0
			c2.9,0.3,3.7,1.3,5.1,1.5c0.2,0,0.5,0,0.6,0c0.3,0.1-0.1,0.1,0.5,0.2c0.3,0,1,0,1.3,0c1.4,0,9.8-0.1,10.5,0.1
			c1.2,0.4,1.6,1.5,1.2,2.4c-0.2,0.5-0.9,1-1.5,1.1c-0.5,0.1-8.6,0-9.2,0c-1,0-1.6-0.1-2.2,0.4c-0.6,0.6-0.3,1.3,0.2,1.7
			c0.5,0.3,4.2,0.2,5.1,0.2c1.1,0,5.7,0.1,6.6-0.1c0.3,0,0.8-0.2,1-0.3c1-0.5,2.1-1.6,2.4-2.6c0.3-1,0-2,0.1-2.2
			c0.1-0.3,3.3-2.9,4-3.6l2.7-2.4c0.4-0.4,0.8-0.9,1.5-1.1c0.8-0.2,1.6-0.1,2.1,0.4c0.3,0.2,0.4,0.3,0.5,0.7
			C66.6,34.4,66.6,34.7,66.5,35.1z M39.4,8.4c-0.7,0.3-1.4,0.4-2.2,0.8l-2.1,0.9c-0.4,0.3-0.9,0.5-1.2,0.8L31.1,13
			c-0.2,0.2-0.3,0.3-0.5,0.5l-0.9,1c-0.4,0.4-0.5,0.7-0.8,1.1c-0.6,0.7-1,1.5-1.5,2.3l-0.7,1.4c-0.5,1.2-1.1,3.6-1.1,4.8
			c0,0.6-0.2,0.8-0.2,2.3c0,0.9,0.1,1.5,0.2,2.4c0,0.4,0,0.2,0.1,0.4c0.1,0.3,0.2,1.2,0.3,1.6c0,0,0,0,0,0.1l0.1,0.1c0,0,0,0,0,0
			c0.3,0.6,0.1,1.9,1.5,1.9c0.6,0,1.1-0.5,1.1-1c0-0.2-0.4-1.3-0.5-1.6L28,28.3c-0.2-1.2-0.2-2.9,0-4c0.2-1,0.1-1.5,0.5-2.5
			c0.3-0.7,0.4-1.4,0.8-2.2c0.8-1.5,1.5-3,2.8-4.2l2.7-2.4l1.4-0.8c0,0,0,0,0,0l1.1-0.6c0.4-0.2,0.9-0.4,1.4-0.6l1.6-0.5
			c0.5-0.2,1.3-0.1,1.9-0.3c0.7-0.2,3-0.2,3.9,0c0.3,0.1,1.2,0.2,1.8,0.3c0.3,0.1,0.6,0.1,0.8,0.2l3.5,1.5l1.9,1.3l2.1,1.9l1.3,1.7
			c0.1,0.2,0.2,0.4,0.4,0.6c0.1,0.1,0.1,0.2,0.2,0.3c0.2,0.4,0.6,0.9,0.7,1.2c0.1,0.2,0.1,0.2,0.2,0.4c0.2,0.3,0.2,0.3,0.3,0.7
			c0.1,0.2,0.2,0.5,0.3,0.7l0.4,1.6c0.2,1.6,0.4,1.7,0.4,3.6c0,0.7,0,1.3-0.1,1.9c-0.2,1.5,1.7,1.8,2.2,0.8c0.4-0.7,0.2-4,0.1-4.9
			c0-0.3-0.1-0.5-0.2-0.8c-0.1-0.5-0.1-1.1-0.3-1.6c-0.1-0.2-0.1-0.1-0.1-0.4c-0.1-0.5-0.4-1.4-0.6-1.8c-0.4-0.8-0.7-1.7-1.3-2.6
			l-1.6-2.3c-0.6-0.8-1.3-1.3-2-2c-0.3-0.3-0.7-0.6-1.1-0.9c-0.9-0.7-2.1-1.4-3.1-1.9l-0.5-0.2c0,0-0.2-0.1-0.2-0.1l-2.8-1
			c0,0,0,0,0,0c0,0,0,0-0.1,0c0-0.4,2.2-4.1,2.7-4.9c0.2-0.4,0.5-1,0.2-1.4c-0.4-0.8-2.3-1.5-3.3-1.6c-0.6-0.1-0.5-0.1-1.4-0.1
			c-0.6,0-0.6,0.1-1.2,0.2c-0.9,0-2.4,0.6-3.2,0.8c-0.4,0.1-0.6,0.2-0.9,0.3c-2.6,0.8-3.9,0.2-4.5,0.8c-0.2,0.2-0.3,0.6-0.2,1
			c0.1,0.6,0.6,1.2,0.9,1.7L39,7.4C39.2,7.7,39.4,8,39.4,8.4z M46.2,7.9c-0.6,0-1.4-0.1-2.2-0.1c-0.7,0-1.6,0.1-2.1,0.1
			c-0.3-0.3-0.3-0.6-0.6-1c-0.4-0.5-0.8-1.3-1.1-1.8c-0.1-0.3-0.5-0.8-0.5-1C40.2,4,40.3,4,40.9,3.9l4.3-1.3
			c1.7-0.3,2.3-0.4,3.7,0.2c0,0.5-0.4,0.8-0.6,1.3c-0.1,0.2-0.2,0.4-0.4,0.6l-1.1,1.9C46.6,7.1,46.4,7.4,46.2,7.9z M19.1,46.3
			c-0.1,0.1-0.6,0.1-0.8,0.5c-0.9,1.7,1.4,2.8,2.4,1.3C21.4,47.3,20.2,45.8,19.1,46.3z M45.5,20.2C45.5,20.2,45.5,20.2,45.5,20.2
			c0.1,0.2,1.1,0.6,1.6,0.1c0.2-0.2,0.3-0.5,0.2-0.9c-0.1-0.3-0.2-0.5-0.6-0.6c0-0.1,0,0-0.1-0.1l-0.6-0.3c-0.9-0.4-1,0.1-1-0.8
			c0-0.4,0-1.1-0.8-1.1c-1,0-0.9,0.8-0.9,1.6c-1,0.6-1.3,0.1-2.1,1.4c0,0,0,0,0,0c-0.2,0.3-0.4,0.6-0.5,1c-0.1,0.7-0.1,1.4,0.3,2.1
			c0.6,0.9,2.5,1.6,3.4,2.1c0.5,0.3,0.9,0.6,0.9,1.1c0.1,1.4-1.8,1.3-2.8,0.9c-0.3-0.1-1.1-0.7-1.7,0c-0.3,0.3-0.3,0.9,0,1.3
			c0.2,0.3,1.3,0.7,1.8,0.8c0.4,0.1,0.3,0.1,0.7,0.2c0,0.8-0.1,1.5,0.9,1.5c1,0,0.7-0.8,0.8-1.6c0.2-0.2,0.6-0.2,0.9-0.3
			c0.8-0.3,1.4-1,1.7-1.7c0.3-0.7,0.2-2-0.3-2.7c-0.5-0.6-1.3-1.1-2.1-1.4l-0.8-0.4c-0.4-0.2-1.2-0.6-1.3-1.1
			c-0.1-0.8,0.2-1.2,1.1-1.2L45.5,20.2z M13.1,48.5c0-0.2,0.8-0.9,1-1.1l1.2-1c0.4-0.3,0.7-0.7,1.1-1c0.9-0.8,2.2-2.3,3.3-2
			c1,0.3,2.1,1.7,3.1,2.5c0.4,0.4,0.7,0.7,1.1,1c0.4,0.4,0.7,0.7,1.1,1c0.4,0.4,0.8,0.7,1.1,1l2.2,2.1c0.7,0.7,2.4,2.1,2.7,2.7
			c0.6,1.1-1.1,2.2-2.1,3.1c-0.7,0.6-1.4,1.3-2.2,2.1c-1.2,1-1,1.3-1.8,0.6l-7.4-6.8C17.1,52.1,13.1,48.5,13.1,48.5z"/>
	</defs>
	<clipPath id="SVGID_3_" class="st1">
		<use xlink:href="#SVGID_4_"  style="overflow:visible;"/>
	</clipPath>
	<linearGradient id="SVGID_5_" gradientUnits="userSpaceOnUse" x1="-64.8757" y1="11.1551" x2="84.3756" y2="40.0778">
		<stop  offset="0" style="stop-color:#00D6F0"/>
		<stop  offset="1" style="stop-color:#20233E"/>
	</linearGradient>
	<rect x="10" y="0.2" class="st2" width="59.7" height="62.5"/>
</g>
<g>
	<defs>
		<path id="SVGID_1_" d="M4.2,43.1c0,2.4-0.2,14.5,0.1,15.8c0.1,0.6,0,0.4,0.3,0.7L4.7,60c0.1,0.1,0.1,0.1,0.2,0.3
			c0.1,0.2,0.4,0.4,0.5,0.5c1,0.7,2,0.9,3.2,0.9c2,0,4.4,0.1,6.4-0.1c2.2-0.2,2.3-1.4,3-1.9c0.3-0.2,0.6-0.2,1.1-0.3l1.7-0.5
			c0.3-0.1,0.2,0,0.6-0.1c0.3-0.1,0.4-0.1,0.6-0.2c0.4-0.1,0.7-0.1,1.1-0.3c0.7-0.3,1.4-0.4,2.3-0.3l9.2,2.4
			c0.8,0.3,1.5,0.4,2.4,0.6l4.1,1.1c0.4,0.1,0.1,0.1,0.5,0.2c0.5,0.2,0.7,0,1.3,0.2c0.8,0.3,3,0.4,3.9,0.1c0.3-0.1,0.3-0.1,0.5-0.2
			c0.2-0.1,0.1,0,0.3-0.1l3.5-1.9c0.1,0,0.2-0.1,0.2-0.1l3.4-2c0.2-0.1,0.2-0.2,0.5-0.3l4.3-2.4c0,0,0.1,0,0.1,0l4.6-2.7
			c0.4-0.2-0.2,0.1,0.1-0.1l0.4-0.3c0.3-0.1,0.2-0.1,0.4-0.3c0.1-0.1,0.1,0,0.2-0.1l4.7-2.8c0.5-0.4,0.8-0.6,1.1-1
			c0.9-1.1,0.9-1.8,0.6-3.2c-0.1-0.4-0.3-0.6-0.5-1c-0.4-0.6-0.9-1-1.5-1.3c-0.6-0.4-2.5-0.7-3.4-0.4c-0.3,0.1-0.3,0.2-0.9,0.2
			c-0.3-1-4-1.6-4.9-1.6c-0.6,0-1.1,0.4-1.7,0.2c0,0-0.1,0-0.1,0c0,0-0.1,0-0.1,0c-1.8-1-1.3-0.3-1.3,1.8c0,1.9-0.1,1-0.2,1.8
			c-0.1,0.5,0.4,0.4,0.8,0.1c0.1,0,0.1-0.1,0.2-0.1c0.2-0.1,0.2-0.1,0.4-0.2l1-0.6c0.8-0.4,0.5-0.3,2.5-0.3c0.4,0,0.3,0.3,1,0.3V44
			c-0.4,0.1-0.2,0.1-0.5,0.3l-3.9,2.2c0,0-0.1,0-0.1,0c-0.6,0.3-1.8,0.7-1.8,1.4c0,0.3,0.2,0.9,0.2,1.2c0,0.9-0.6,1.8,1.9,0.3
			c0.2-0.1,0.1-0.1,0.3-0.2c0.2-0.1,0.1,0,0.3-0.2l1.6-0.9c0,0,0.1,0,0.1,0l0.4-0.2c0.2-0.1,0.4-0.2,0.6-0.3l3.2-1.9
			c0.1-0.1,0.2-0.1,0.3-0.2c1.4-0.7,0.6-0.7,2.7-0.7c0.5,0,1.1,0.9,1.1,1.1c0,0.4-0.1,0.7-0.5,1c-0.3,0.2-0.1,0.1-0.3,0.2l-6.2,3.6
			c-0.4,0.2-0.4,0.2-0.7,0.4c-0.2,0.1-0.2,0.1-0.4,0.2c-0.2,0.1-0.2,0.1-0.4,0.2L56,54.4c-0.2,0.1-0.2,0.1-0.4,0.2
			c-0.1,0.1-0.2,0.1-0.4,0.2L53.4,56c0,0-0.1,0-0.1,0l-5.9,3.5c0,0-0.1,0-0.1,0c-1.1,0.6-1.7,0.5-3,0.5c-0.5,0-0.9,0-1.3-0.1l-3-0.8
			c-0.4-0.2,0-0.1-0.6-0.2c-1-0.2-2-0.6-3-0.8c-0.6-0.1-0.1,0-0.6-0.2c-0.4-0.2-0.8-0.1-1.2-0.3c-0.4-0.1,0-0.1-0.5-0.2l-2.4-0.6
			c-0.7-0.3-1.6-0.3-2.4-0.6L28,55.9c-0.5-0.1-0.5-0.2-1.2-0.3c-0.7-0.1-2-0.8-3.6-0.2l-1.5,0.5c-0.3,0.1-0.5,0-0.8,0.1
			c-0.9,0.2-2.7,1.1-2.7,0.4V44.4c0-0.2,0.2-0.4,0.4-0.5c0.3-0.2,0.5-0.1,0.9-0.2c0.5-0.1,0.3-0.2,0.8-0.3c0.8-0.2,1.7-0.4,2.6-0.5
			c2.3,0,4.2-0.3,6.6,0.3c0.6,0.2,1.2,0.1,1.8,0.3c0.5,0.2,0.4,0.1,0.9,0.1c0.5,0.1,0.4,0.2,0.7,0.3c0.3,0.1,0.6,0.1,0.9,0.2
			l1.2,0.3c0.7,0.1,0.5,0.2,1.2,0.3l3.1,1c0.4,0.2,0.5,0.1,0.9,0.2l1.2,0.3c0.9,0.2,1.5,0.6,2.4,0.7c0.4,0.1,0.2,0,0.5,0.1
			c1,0.4,2.2,0.5,3.4,0.7c0.4,0.1,0.3,0.1,0.9,0.2c0.5,0.1,1.4,0,1.9,0.1c0.5,0.1,1.1,0.4,1.5,0.6v0.9c-0.4,0.1-0.3,0.2-0.5,0.4
			L51,50.3c0,0,0,0-0.1,0l-2.6,1c-1.2,0.4-3.9,0.2-5.3,0.2c-0.4,0-0.5-0.1-0.9-0.2c-0.3-0.1-0.8,0-1.2-0.1l-4.4-1.4
			c-0.8-0.2-1.7-0.8-2.4-0.1l-0.3,0.4c-0.2,0.3-0.2,0.1-0.2,0.4c0,0.3,0.4,1,0.7,1.1c0.6,0.4,2.2,1,3,1.2c0.7,0.2,1.8,0.6,2.7,0.7
			c0.7,0.1,1,0.3,1.7,0.3c1.4,0.1,2.6,0.3,4.1,0.3c1.3,0,1.9-0.3,3.2-0.3c1,0,2.5-0.7,3.3-1.2l1.8-1.6l0.6-1.2
			c0.3-0.8,0.1-1.3-0.2-2c-0.3-0.7-1.2-1.5-2.2-1.9c-1.1-0.4-1.1-0.2-1.9-0.4c-0.9-0.3-1.5-0.1-2.2-0.2c-0.3,0-0.6-0.2-0.9-0.3
			c-0.8-0.1-2.2-0.4-3-0.7c-0.5-0.2-0.7-0.1-1.1-0.2c-0.4-0.1,0-0.1-0.4-0.2c-0.2-0.1-0.2,0-0.5-0.1l-5.2-1.5
			c-0.6-0.1-0.4-0.2-1.2-0.3c-0.3-0.1-0.2,0-0.3-0.1c-0.6-0.2-3.1-0.9-3.8-1c-1-0.1-0.8-0.3-2.1-0.3c-0.9-0.1-1-0.3-2.2-0.3
			c-0.8,0-1.4-0.1-2.4-0.1c-0.8,0-1.4,0.1-2,0.1c-1.2,0.1-0.9,0.1-1.8,0.3c-0.4,0.1-0.6,0-1,0.1c-0.6,0.2-0.1,0.2-0.8,0.3
			c-0.6,0.1-0.4,0-0.8,0.2c-0.4,0.2-0.3,0.1-0.9,0.1c-0.1-0.9-2.1-1.8-3-1.8c-1.3,0-6.8-0.2-7.6,0.1c-0.3,0.1,0,0-0.3,0.1l-1.4,0.8
			C4.4,41.3,4.2,42.1,4.2,43.1 M34.4,17.5v5c0,0.5,0.2,0.6,0.3,1.1c0.2,0.8,0,0.4,0.4,1.2l0.4,0.6c0.2,0.3,0.1,0.2,0.3,0.4l1.1,1
			c0.2,0.1,0.3,0.1,0.4,0.3l0.4,0.3c0,0,0.1,0,0.1,0c0.6,0.3,0.4,0.3,1,0.4c1.5,0.3,0,0.3,2.6,0.3l1.6-0.4c0.2-0.1,0.2-0.1,0.2-0.1
			l0.4-0.2c0.2-0.1,0,0,0.2-0.1l0.2-0.1c1.3-0.7,1.5-1.2,2.3-2.4c0.3-0.4,0.6-1.6,0.6-1.7v-6c0-0.5-0.4-1.4-0.6-1.8l-1.2-1.6
			c-0.9-0.9-1.5-1-2.3-1.4c-0.5-0.2-0.2-0.2-0.9-0.3c-1.1,0-2.3-0.2-3.3,0.2l-0.6,0.2c-0.3,0.1-0.2,0.1-0.5,0.2L37,13.1
			c-0.1,0.1-0.1,0-0.2,0.1l-0.4,0.4c-0.6,0.5-0.6,0.6-1,1.2c-0.3,0.4-0.1,0.1-0.3,0.5C34.9,15.8,34.4,17,34.4,17.5z M37.3,21.9
			c0-1.6-0.2-4.1,0.3-5.3c0.1-0.2,0.1-0.4,0.2-0.5l0.4-0.4c1-0.9,1.1-0.7,1.8-1c0.8-0.3,0.6-0.3,1.5,0c0.9,0.3,1.7,0.4,2.4,1.6
			c0.3,0.4,0.4,0.6,0.4,1.3c0,1.2,0.2,5.2-0.2,6c-0.5,1-1.8,2-2.9,2c-1.1,0-1.5,0-2.4-0.5C37.7,24.2,37.3,23.1,37.3,21.9z M6,4.5
			v3.8c0,0.5,0,0.2,0.1,0.4c0.2,0.7,0.1,1.3,1,2.2c0.1,0.1,0,0,0.2,0.2l0.5,0.4c1.1,1,2.9,1.5,4.4,1.1c0.3-0.1,0.2,0,0.6-0.1
			c1.1-0.2,2.3-1.3,3-2.2c0.4-0.6,0.2-0.5,0.5-1.1l0.2-0.8c0.2-1.7,0.3-4.4-0.7-6l-2.1-1.9c-0.2-0.1,0,0-0.2-0.1l-0.8-0.3
			C11.6-0.1,11,0,10.2,0.1C9,0.2,7.5,1.1,6.9,2.1L6.8,2.2c0,0,0,0,0,0.1c0,0,0,0,0,0.1C6,3.5,6.4,3.1,6.1,4C6,4.4,6,3.9,6,4.5z
			 M8.8,8.5V4.3c0-0.5-0.1,0.1,0.2-0.4l0.5-0.6c0.9-0.8,2.7-0.7,3.4,0.3c0.3,0.4,0.4,0.4,0.4,0.6v4.4c0,0.6-0.7,1.1-1.1,1.4
			c0,0-0.1,0-0.1,0c-0.5,0.3-0.4,0.2-1.1,0.2c-0.1,0-0.4,0-0.5,0L10,9.9c-0.3-0.2-0.1,0-0.4-0.2C9.2,9.4,8.8,8.6,8.8,8.5z M62.9,5.3
			c0,2.3-0.2,4.3,1.6,6c0,0,0,0,0.1,0.1l1.1,0.7c0,0,0.1,0.1,0.2,0.1c0.8,0.4,0.6,0.3,1.9,0.6c0.9,0.2,2.9-0.4,3.9-1.3
			c0,0,0,0,0.1-0.1l0.5-0.5c0.3-0.3,0.8-1.1,0.9-1.6c0.2-1,0.3-0.5,0.3-1.1V4.5c0-0.1-0.3-1.4-0.5-1.8c-0.7-1.1-0.9-1.4-2.1-2
			c-1.1-0.6-2.4-0.7-3.7-0.5L64,1.8c0,0,0,0-0.1,0.1l-0.7,1.2c-0.2,0.5-0.2,0.5-0.3,1C62.9,4.5,62.9,4.8,62.9,5.3z M68.6,10.2
			c-1,0-1.4,0.1-2.1-0.6c-0.2-0.2-0.6-0.7-0.6-1.1V4.1c0-0.4,0.4-0.4,0.5-1c0.4,0,2.4-1.5,3.8,0.6C70.3,4,70.4,4,70.4,4.3v4.3
			c0,0.2-0.1,0.2-0.3,0.5C69.7,9.8,68.9,10.2,68.6,10.2z M36.3,36.8c0,0.7,0.9,1.5,1.5,2l1.1,1c0,0,0,0,0.1,0.1
			c1.1,1,1.6,2.1,3.3,0.5c0.2-0.2,3-2.9,3-3.1c0-2-0.1-1.1-0.4-2.4c0-0.2,0-0.6-0.1-0.9c-0.1-0.4-0.3-0.4-0.3-0.8
			c-0.1-0.4,0-0.5-0.1-0.9c-0.2-0.6-0.2-0.1-0.3-0.8c0-0.4,0-0.5-0.1-0.9c-0.1-0.4,0,0-0.2-0.4c-0.1-0.2-0.1-0.2-0.2-0.4
			c-0.5,0-2.5,0.1-2.5,0.7c0,1.3,0.2,0.8,0.4,2.4l0.1,0.5c0,0,0,0.1,0,0.1l0.3,1.2c0.1,1.1,0.4,0.1,0.4,1.9c0,0.3-0.3,0.4-0.6,0.7
			c-0.3,0.3-0.4,0.5-0.8,0.7l-0.6-0.5c-1.6-1.6-0.7-0.9-0.5-2.7c0-0.4,0.7-2.8,0.8-3.6c0-0.3,0-0.2,0.1-0.4c0,0,0.3-0.4-0.3-0.6
			c-0.1,0-0.5-0.1-0.7-0.2c-1.9-0.3-1.6-0.2-1.8,0.6c-0.1,0.3-0.2,0.5-0.3,0.8c-0.1,0.5,0.1,0.5-0.1,1c-0.5,1.1,0,0.7-0.4,1.8
			c-0.3,0.9-0.1,1-0.4,1.8C36.4,36.2,36.3,36.3,36.3,36.8z M68.1,21.4c-0.3,0-1.4-1-1.4-1.3c0-1.6,0.1-0.6,0.3-1.5
			c0.1-0.3,0-0.5,0.1-0.9c0.1-0.4,0.2-0.3,0.3-0.7l0.4-1.7c0-0.2,0-0.2,0-0.4c-0.1-0.3,0-0.2-0.3-0.3L66,14.5
			c-0.4-0.1,0.1-0.2-0.5-0.2c-0.8,0-0.3,0.6-0.9,1.8c-0.2,0.4-0.1,0.9-0.3,1.5c-0.4,1.1-0.1,0.9-0.3,1.4c-0.4,1-0.3,0.2-0.3,1.9
			c0,0.4,1.8,1.9,2.3,2.3l0.4,0.4c0,0,0,0,0.1,0.1c0,0,0,0,0.1,0.1c0,0,0.1,0.1,0.1,0.1c0.6,0.5,0.6,0.7,1.5,0.7
			c0.4,0,0.6-0.1,0.8-0.2l3.4-3.1c0,0,0,0,0.1-0.1c0.5-0.7-0.1-1.9-0.2-2.3c-0.2-1.6-0.3-0.5-0.4-1.7c-0.1-0.6-0.2-0.5-0.4-1.6
			c-0.1-0.8-0.3-0.9-0.6-1.5c-0.6,0.3-0.3,0.3-1.2,0.3c-0.7,0-1.6,0.1-1,1.7c0.6,1.5,0,0.8,0.5,1.7c0.2,0.4,0.1,0.1,0.1,0.6
			c0.1,0.9,0.4,1,0.3,1.5l-1.1,1.2C68.2,21.5,68.6,21.4,68.1,21.4z M11.1,24.6c0.9,0,1.4-0.6,2.2-1.4l1.1-1c1.2-1.1,1.1-0.9,1.1-2.2
			c0-0.8-0.3-0.4-0.4-1.5c-0.1-0.7-0.2-0.6-0.3-1c0-0.1-0.1-0.4-0.1-0.5c0-0.3-0.1-0.5-0.2-0.7c-0.5-1.5-0.1-1.4-0.9-2
			c-1.3,0.6-0.9,0.2-1.8,0.4c-0.5,0.1-0.5,0.2-0.5,0.6c0,0.3,0.3,0.8,0.4,1.7c0.1,0.5,0.2,0.4,0.3,0.8c0.1,0.4,0,0.6,0.1,1
			c0.2,0.7,0.3,0,0.3,1.4c0,0.3-1.1,1.3-1.4,1.3c-0.3,0-0.4-0.3-0.8-0.6c-0.7-0.6-0.6-0.3-0.6-1.2c0-0.4,0.2-0.1,0.3-0.8
			c0.1-0.5,0-0.5,0.2-0.9c0.4-1.1,0.1-0.7,0.5-1.7c0.7-1.8-0.5-1.6-1.3-1.6c-0.5,0-0.5-0.2-0.8-0.3c-0.9,1.2-0.5,1.3-0.8,2.2
			c-0.1,0.3-0.2,0.2-0.2,0.9c-0.1,1.3-0.2,0.2-0.4,1.6c-0.1,1.3-1.2,1.6,0.6,3.1l2.1,1.8C10.2,24.3,10.3,24.6,11.1,24.6z M45.9,28.6
			c0.2,0.6,0.6,0.6,1,0.8l3.8,1.8c0,0,0.1,0,0.1,0c0.4,0.2,0.7,0.5,1,0.8c0.5,0.5,0.7,1.1,0.7,1.8c0.1,2.8-0.1,5.8,0,8.5
			c0,0.7,0.1,1.2,0.7,1.4c0.6,0.3,1.2,0.2,1.7-0.2l0.2-0.2c0.1-0.2,0.2-0.2,0.2-0.5V33c0-0.8-0.5-1.8-1-2.4L52.4,29
			c-1.3-0.8-0.9-0.5-1.8-0.9l-2.3-1c-0.4-0.2-0.2-0.2-0.7-0.2C47.4,27.5,46.2,28.1,45.9,28.6z M56.8,18.5c0,1.4-0.2,7.3,0.3,8
			c0.1,0.2,0.7,0.6,1.3,0.6c0.1,0,1.2-0.3,1.2-1.2c0.1-1.5-0.2-7.5,0.1-8.1l0.6-0.9c0.1-0.1,0.1-0.1,0.2-0.2l1.1-0.7
			c0,0,0.1,0,0.1,0c0,0,0.1,0,0.1,0l2.7-1.3c0.4-0.3,0.3-0.4,0.3-0.7c-0.4-0.1-0.1,0-0.3-0.1l-0.1-0.1c0,0,0,0-0.1,0l-0.6-0.4
			c-1.4-1-0.7-0.8-3.2,0.3l-1.2,0.7c0,0-0.1,0-0.1,0c-0.5,0.3-1,0.8-1.3,1.2l-0.3,0.4c0,0,0,0,0,0.1L57,16.8
			C56.8,17.3,56.8,17.9,56.8,18.5z M14.5,14.1c0.4,0.5,0.6,0.5,1,0.7l2.2,1.1c0.2,0.1,0.5,0.2,0.8,0.4l0.7,0.6
			c0.5,0.6,0.6,1.1,0.6,1.9l0,7c0,0.5,0.1,0.7,0.4,0.9c1.2,0.9,2.3,0,2.3-1.4c0-2,0.1-6.7-0.2-8.4l-0.8-1.5
			c-0.6-0.8-1.3-1.1-1.6-1.3L19.8,14c-0.1-0.1-0.1-0.1-0.2-0.1c-0.4-0.2-2.4-1.2-2.7-1.2c0,0-0.3,0-0.4,0c-0.3,0.1-0.2,0.1-0.5,0.4
			L14.5,14.1z M0,16.4v10.1c0.8,0.2,0.8,1,2.1,0.2c0.4-0.2,0.4-0.3,0.5-0.8c0.4-2-0.5-7.7,0.5-9c0.2-0.3,0.4-0.4,0.7-0.6
			c0.2-0.1,0.2-0.1,0.4-0.2l2.1-1c0,0,0.1,0,0.1,0l0.8-0.4c0.4-0.2,0.5-0.3,0.7-0.6l-1.8-1.4c-0.5-0.3-1.2,0.2-1.7,0.4l-0.5,0.3
			c-1.1,0.5-1.9,0.9-2.7,1.8l-0.5,0.7c0,0.1-0.2,0.3-0.2,0.3C0.1,16.4,0.3,16.3,0,16.4z M71.5,14.1c0.3,0.6,0.6,0.5,1,0.7
			c0.1,0.1,0.2,0.1,0.2,0.1l2.5,1.2c0.9,0.5,1.1,0.7,1.3,1.6c0.1,0.4,0.1,0.6,0.1,1.1c0,1.6,0,3.1,0,4.7c0,1.6-0.3,2.8,0.8,3.3
			c0,0,0.2,0.1,0.2,0.1c0.3,0.1-0.3,0.1,0.3,0.1c0.6,0,0.7-0.4,1.3-0.5v-10c-0.5-0.2,0,0.1-0.3-0.5l-1.1-1.3l-1.6-1
			c0,0-0.1-0.1-0.1-0.1c-0.3-0.1-0.1-0.1-0.3-0.1l-0.6-0.3c0,0-0.1,0-0.1,0L74.6,13c-1.2-0.6-1.2-0.3-2.2,0.4
			C72.1,13.6,71.7,13.8,71.5,14.1z M26.4,33.3c0,1.2-0.1,4,0.1,5c0.5,0,0.6,0.1,1.1,0.1c1.1,0.2,0.4,0.3,1.6,0.1
			c0.6-1.1,0-4.7,0.2-5.7c0.1-0.3,0.7-1.1,1-1.3l5.1-2.5c0.2-0.1,0.2,0,0.2-0.3c0-0.4,0,0-0.1-0.2l-1.2-1.2
			c-0.4-0.4-0.3-0.5-1.1-0.2L31.5,28c-0.9,0.4-1.6,0.7-2.3,1.1l-2.4,2.8c-0.1,0.2-0.1,0.2-0.1,0.3C26.5,32.6,26.4,32.7,26.4,33.3z
			 M9.8,46.4c0,0.8,0.1,1.5,1.3,1.5c0.3,0,0.7-0.1,0.9-0.3c1-0.7,0.2-2.2-0.4-2.2c-0.9,0-0.9-0.1-1.3,0.2L10,45.9
			C9.8,46.1,9.8,46.1,9.8,46.4z M6.9,58.1V43c0-0.2,0.3-0.5,0.4-0.7l7.4,0c0.4,0.1,0.2-0.1,0.4,0.2c0.3,0.1,0.1-0.1,0.2,0.2l0,16
			c-0.4,0-0.4,0.1-0.8,0.1H7.5C7.1,58.9,6.9,58.5,6.9,58.1z"/>
	</defs>
	<clipPath id="SVGID_6_">
		<use xlink:href="#SVGID_1_"  style="overflow:visible;"/>
	</clipPath>
	<linearGradient id="SVGID_7_" gradientUnits="userSpaceOnUse" x1="-97.1693" y1="-4.125" x2="98.2211" y2="46.5608">
		<stop  offset="0" style="stop-color:#00D6F0"/>
		<stop  offset="1" style="stop-color:#20233E"/>
	</linearGradient>
	<rect y="-0.1" class="st3" width="79.2" height="62.9"/>
</g>
<g class="st0">
	<defs>
		<path id="SVGID_2_" d="M20.7,61.7h37.9c2.3-1.1,6.4-1.6,6.4-7.8c0-3.6,0.4-10.1-0.5-13.2c-1-3.6-3.7-6.2-6.5-7.8
			c-3.4-1.9-7.9-1.9-12.4-2.4c0.3-0.4,1.2-0.9,1.6-1.2c2.8-1.8,3.1-2.8,3.8-5.7c0.9-3.8,3.3,2.1,3-9.7c-0.1-3.9-1.8-6.5-3.8-8.7
			c-3.1-3.3-7.1-3.5-8.9-4.2H38c-1.9,0.8-3.8,0.4-7,2.7c-5,3.6-5.6,7.2-5.6,12.7c0,7.5,1.9,4.8,2.9,6.3c0.3,2.1,0.6,3.6,1.8,4.8
			c1.8,2,3.2,1.9,3.6,3c-4.4,0.3-9.2,0.6-12.4,2.5c-8.3,4.8-7,12.3-6.9,21.1C14.4,60.1,18.5,60.6,20.7,61.7 M27.5,16
			C26.2-1.1,53.1-1.1,51.8,16c-1.8-0.8,0.6-2.5-5.3-3.6c-2-0.4-6.1-2.3-7-2.2c-0.8,0-4.7,1.9-6.9,2.3C27.2,13.4,29.2,15.3,27.5,16z
			 M29.7,21.1c-0.7-0.7-3.3-1-1.8-2.7c0.7-0.8,1.2-0.3,1.9-1c0.7-0.7,0.2-0.9,0.7-1.8c0.9-1.5,3.7-0.9,8-3c1.9-0.9,1.7-0.3,3.7,0.5
			c6.3,2.6,5.5-0.2,7.1,3.7c0.7,1.5,2.7,0.5,2.5,2.4c-0.1,1.8-2.2,0.6-2.7,2.6c-0.5,1.7-0.2,2.6-1.2,4c-0.9,1.3-4.4,3.6-6.6,4.2
			c-3.2,0.9-6-1.3-7.9-2.4C29.7,25.4,31.1,22.3,29.7,21.1z M36.3,31.8c3.9,0.7,2.7,0.7,6.7,0C42.9,36.7,36.4,36.7,36.3,31.8z M22,39
			v14.8c0,2.8,0.6,0.4-0.1,5.8c-7,0.3-5.5-8.9-5.5-14.9c0-10.6,9.5-11.6,17.4-12.2l1.3,2.8c-2.2,0.3-6,0.1-8.3,0.1
			C23.7,35.4,22,36,22,39z M45.4,32.5c7.7,0.6,17.4,1.4,17.4,12.2v9.4c0,3.1-2.2,5.6-5.5,5.5c-0.6-5-0.1-3.2-0.1-5.8V39
			c0-5.6-6.5-2.8-13.2-3.7c0.1-0.1,0.5-0.9,0.6-1.2l0.5-1.2c0-0.1,0.1-0.2,0.1-0.2C45.3,32.7,45.4,32.6,45.4,32.5z M24.4,37.6
			c1.6-0.4,28.9-0.4,30.5,0c0.4,1.4,0.4,15.6,0.1,17.5c-1.8,1.1-12,0.5-15.2,0.5c-3.3,0-13.7,0.6-15.5-0.5
			C24,53.3,24.1,38.9,24.4,37.6z M38.1,43.8c-5.6,2-2.1,9.4,3.2,7.4c1.9-0.7,3.4-2.9,2.4-5.3C42.9,44.2,40.6,42.9,38.1,43.8z
			 M38.8,45.6c2.9-1,4.2,2.9,1.7,3.7C37.6,50.3,36.2,46.6,38.8,45.6z M24.2,57.6l31.8,0l-0.9,0l-0.1,2l-30.8,0L24.2,57.6z"/>
	</defs>
	<clipPath id="SVGID_8_" class="st1">
		<use xlink:href="#SVGID_2_"  style="overflow:visible;"/>
	</clipPath>
	<linearGradient id="SVGID_9_" gradientUnits="userSpaceOnUse" x1="-51.3616" y1="14.7011" x2="78.8292" y2="37.1493">
		<stop  offset="0" style="stop-color:#00D6F0"/>
		<stop  offset="1" style="stop-color:#20233E"/>
	</linearGradient>
	<rect x="12.8" y="-1.1" class="st4" width="52.5" height="62.7"/>
</g>
</svg>
