<?xml version="1.0" encoding="utf-8"?>
<!-- Generator: Adobe Illustrator 25.2.0, SVG Export Plug-In . SVG Version: 6.00 Build 0)  -->
<svg version="1.1" id="Layer_1" xmlns="http://www.w3.org/2000/svg" xmlns:xlink="http://www.w3.org/1999/xlink" x="0px" y="0px"
	 viewBox="0 0 39.7 27.8" style="enable-background:new 0 0 39.7 27.8;" xml:space="preserve">
<style type="text/css">
	.st0{fill-rule:evenodd;clip-rule:evenodd;fill:#FFFFFF;}
</style>
<path class="st0" d="M39.4,24.7c0.5-1.6,0.2-14,0.2-16.7c0-8.3-0.9-8-8.9-8l-25,0C2.8,0,0.9,0.6,0.3,3.1c-0.6,2.7-0.2,13.3-0.2,16.8
	c0,8.3,1,7.9,8.9,7.9l25,0C37.2,27.8,38.6,27.3,39.4,24.7 M2.4,2.9C3,2.2,3.3,2,4.8,2h30c1.1,0,1.6-0.1,2.3,0.7L22.5,13.1
	c-0.8,0.5-1.7,0.7-2.8,0.6c-1.6-0.2-7.3-4.1-8.9-5.1C9.5,7.7,2.7,3.7,2.4,2.9z M2.1,5.5c3.9,2.1,9,5.7,13.2,8.2c6.8,4,7,1.9,14-2.9
	c2.9-2,5.5-4,8.3-5.8c0.2,1.9,0.3,17.4,0,18.9c-0.5,2.5-4,1.8-7.6,1.8H10.7C-0.1,25.7,2.1,28.4,2.1,5.5z"/>
</svg>
