<?xml version="1.0" encoding="utf-8"?>
<!-- Generator: Adobe Illustrator 25.2.0, SVG Export Plug-In . SVG Version: 6.00 Build 0)  -->
<svg version="1.1" id="Layer_1" xmlns="http://www.w3.org/2000/svg" xmlns:xlink="http://www.w3.org/1999/xlink" x="0px" y="0px"
	 viewBox="0 0 31 42.6" style="enable-background:new 0 0 31 42.6;" xml:space="preserve">
<style type="text/css">
	.st0{fill-rule:evenodd;clip-rule:evenodd;fill:#FFFFFF;}
</style>
<path class="st0" d="M15.4,41c0.3-0.2,0.4-0.4,0.6-0.7l0.4-0.6c0,0,0,0,0,0l0.5-0.7C17,39,17,39,17.1,38.9c0.2-0.2,0.3-0.2,0.3-0.5
	l1.4-1.8c0,0,0,0,0,0l0.4-0.6c0,0,0,0,0,0l0-0.1c0,0,0,0,0,0l0.3-0.4c0,0,0,0,0,0l0.2-0.3c0,0,0,0,0,0l0.5-0.7c0,0,0,0,0,0
	c0,0,0,0,0,0c0,0,0,0,0,0l0.8-1.2c0,0,0,0,0,0c0,0,0,0,0,0c0.3-0.5,0.7-0.9,0.9-1.4c0.5-1,1.3-1.9,1.8-2.9c0,0,0,0,0,0c0,0,0,0,0,0
	c0.3-0.6,0.7-1.1,1-1.7c0,0,0,0,0,0l0.2-0.3c0,0,0,0,0,0l1.2-2.3c0,0,0,0,0,0c0,0,0,0,0,0l1.4-3.1c0.5-1.2,0.8-2.5,1.1-3.8l0.1-3.2
	c0,0,0,0,0,0l-1.7-5.2c0,0,0,0,0,0l-0.1-0.2c0,0,0,0,0,0l-1.2-1.6c-0.2-0.2-0.5-0.8-0.8-0.8c0-0.3,0-0.2-0.2-0.3l-1.1-1c0,0,0,0,0,0
	l-0.7-0.5c0,0-0.7-0.4-1.1-0.7l-1-0.5C21.2,3.1,21.2,3,21,3l-0.3-0.1c0,0-0.1,0-0.1,0l-0.2-0.1c-0.8-0.4-0.5-0.2-1.2-0.4
	c0,0-0.1,0-0.1,0l-0.5-0.1c-0.5-0.1-1-0.3-1.5-0.3c-0.1,0,0.1,0-0.1,0l-0.1,0c0,0-0.1,0-0.1,0c-0.2,0,0,0-0.1,0l-0.1,0
	c0,0-0.1,0-0.1,0c-0.2,0,0,0-0.3,0l-0.5,0c0,0,0,0,0,0c0,0,0,0,0,0c-0.4-0.1-1.4,0-1.8,0.1c-0.7,0.1-1.4,0.2-2.1,0.4l-3,1.2
	c0,0,0,0,0,0L7.6,4.3c0,0,0,0,0,0l-1.2,1c0,0,0,0,0,0L5.8,5.7C5.8,5.8,5.7,5.8,5.7,5.9L4.3,7.5c0,0,0,0,0,0L3.8,8.2
	c0,0,0,0.1-0.1,0.1L3.5,8.7c0,0,0,0,0,0l-1.4,3.7c0,0,0,0,0,0L2,13c-0.1,0.6-0.2,1.1-0.2,1.6l0,0.2c0,0,0,0,0,0l0,0.2
	c0,0.7,0,1.3,0.1,2.1L2,17.5c0,0.2,0,0.3,0,0.4c0,0,0,0,0,0c0,0,0,0,0,0l0.7,2.5c0,0,0,0,0,0l0.5,1.2c0,0,0,0,0,0c0,0,0,0,0,0
	l0.3,0.6c0.1,0.2,0-0.1,0,0.1l0.6,1.4c0,0,0,0,0,0c0,0,0,0,0,0c0,0,0,0,0,0l1.8,3.4c0,0,0,0,0,0l0.5,0.8c0,0,0,0,0,0l0.9,1.4
	c0,0,0,0,0,0l0.4,0.7c0.2,0.2,0.2,0.2,0.3,0.4l2.1,3.3c0,0,0,0,0,0l0.5,0.6c0,0,0,0,0,0l1.4,2c0.3,0.4-0.1-0.2,0.1,0.1l0.5,0.8
	c0,0.1,0.1,0.1,0.1,0.1l0.5,0.8c0,0,0,0,0,0l0.1,0.1c0.4,0.4,0.7,1,1.1,1.5l0.3,0.4c0,0,0,0,0,0C15.2,40.6,15.3,40.7,15.4,41
	 M20.8,15.9l-0.1-1.1c0,0,0-0.1-0.1-0.2c0,0,0,0,0-0.1c0,0,0,0,0,0c0,0,0,0,0,0c-0.1-0.3-0.1-0.6-0.3-0.9l-1.3-1.8c0,0,0,0,0,0
	l-0.2-0.2c0,0,0,0,0,0c0,0,0,0,0,0c0,0,0,0-0.1,0l-0.3-0.2c-0.4-0.3-0.9-0.6-1.4-0.7l-2.1-0.2c-0.2,0-0.5,0-0.7,0.1l-0.8,0.2
	c0,0-0.2,0.1-0.3,0.1L13,10.9c-0.5,0.2-0.5,0.4-0.8,0.5L11.6,12c0,0,0,0,0,0c0,0,0,0,0,0c-0.5,0.5-0.8,0.9-1,1.6c0,0,0,0,0,0l0,0.1
	c-0.1,0.3-0.3,0.8-0.3,1.1l0,0.1c0,0.7-0.1,1.4,0.1,2.1l1.5,2.5l1.1,0.8c0.5,0.2,0.9,0.4,1.4,0.5l0.6,0.1c0,0,0.1,0,0.1,0
	c0.3,0,0.6,0.1,1,0c0.3-0.1-0.1,0,0.2-0.1l0.8-0.2c0.2,0,0,0,0.2-0.1l1.1-0.5c0.8-0.4,1.6-1.3,1.9-2.1l0.5-2
	C20.8,16,20.8,16,20.8,15.9z M8.3,16l0.2,1.4c0.1,0.6,0.4,1.2,0.7,1.7l0.1,0.3c0.1,0.2-0.2-0.3,0,0.1c0,0,0,0.1,0.1,0.1l1.5,1.7
	c0.2,0.2,0.4,0.4,0.7,0.5c0,0,0,0,0.2,0.1l0.6,0.3c0.1,0,0,0,0.1,0c0.2,0.1-0.1,0,0.1,0l0.5,0.2c0,0,0,0,0,0c0,0,0,0,0.1,0l0.6,0.2
	c0,0,0,0,0,0c0,0,0,0,0,0l1.9,0.2c0,0,0,0,0,0l1-0.1c0,0,0,0,0,0l0.3-0.1c0,0,0,0,0,0l1.4-0.6c0,0,0,0,0,0l1.5-1
	c0.3-0.3,0.6-0.5,0.8-0.9l0.1-0.1c0,0,0.1-0.1,0.1-0.1l1-1.7c0,0,0,0,0,0c0,0,0,0,0,0l0.1-0.2c0,0,0,0,0,0l0.1-0.2
	c0.2-0.8,0.4-1.7,0.3-2.5c-0.1-0.4,0-0.4-0.1-0.7l-0.2-0.7c0-0.1-0.1-0.1-0.1-0.1l-0.2-0.6c0,0,0,0,0,0c0-0.2-0.2-0.3-0.3-0.5
	c-0.2-0.5-0.6-1-0.9-1.4L20.8,11c0,0,0,0,0,0l-0.9-0.8c0,0,0,0,0,0L19.7,10c0,0,0,0,0,0c-0.5-0.3-0.7-0.5-1.3-0.8
	c-0.1,0-0.1,0-0.1,0l-0.5-0.2c0,0-0.1,0-0.1,0c0,0,0,0,0,0l-1.7-0.3c0,0,0,0,0,0c0,0,0,0,0,0l-0.9,0c0,0,0,0,0,0l-0.9,0.1
	c-0.2,0.1-0.1,0.1-0.4,0.1L13,9c0,0,0,0,0,0l-0.1,0c-0.1,0,0,0-0.2,0.1c0,0-0.1,0-0.1,0l-0.1,0c0,0-0.1,0-0.1,0c0,0,0,0,0,0
	l-0.8,0.4c0,0-0.1,0.1-0.2,0.1c-0.1,0.1-0.2,0.2-0.3,0.3c-0.1,0.1-0.1,0.1-0.1,0.1l-0.7,0.7c-0.1,0.1,0.1-0.1-0.1,0.1
	C10,11,10,11.1,10,11.2l-0.5,0.7c0,0,0,0,0,0l-0.9,2c0,0.1,0,0.2,0,0.3c0,0,0,0.1,0,0.1L8.3,16z M14.5,0c-0.3,0-0.5,0.1-0.9,0.1
	l-1.5,0.2c-0.3,0,0.1,0-0.2,0.1L7.6,2.1c0,0.5,0.1,0.1-0.2,0.2C7.3,2.4,7.2,2.5,7.1,2.5L6.3,3c0,0,0,0,0,0c0,0-0.1,0.1-0.1,0.1
	L5.5,3.7C5.4,3.7,5.4,3.8,5.3,3.8c0,0,0,0,0,0L4.6,4.5c0,0,0,0,0,0L3.8,5.3c-0.3,0.3-0.7,0.6-0.7,1c-0.3,0-0.2,0.1-0.4,0.3L1.9,8
	c0,0,0,0,0,0L1.4,8.9c0,0.1,0,0.1-0.1,0.1c-0.1,0.2,0,0-0.1,0.2l-0.4,1.1c0,0.1,0,0.1-0.1,0.2l-0.3,0.8c-0.1,0.5-0.3,1-0.3,1.5
	c0,0.2,0,0,0,0.1L0,16.3c0,0,0,0.1,0,0.1l0,0.2c0,0.3,0-0.2,0,0.1l0,0.1c0,0,0,0,0,0l0,0.3c0,0.1,0,0,0,0.1l1,3.9c0,0,0,0,0,0
	c0,0,0,0,0,0l0.3,0.7c0.1,0.2,0-0.1,0,0.1l2.7,5.5c0,0,0,0.1,0,0.1c0.2,0.3,0.4,0.6,0.5,0.9L7.5,33c0.1,0.1,0.1,0.1,0.1,0.2
	c0,0,0,0.1,0.1,0.2l0.4,0.7c0.1,0.2,0.2,0.3,0.3,0.4l0.7,1.1c0,0,0,0,0,0l0.1,0.2c0.3,0.5,0.6,1,1,1.4l0.9,1.3
	c0.2,0.4,0.6,0.8,0.9,1.1l0.5,0.7c0,0,0,0,0,0l1.2,1.6c0.1,0.1,0.1,0.1,0.2,0.2l0.3,0.2c0,0,0,0,0,0c0.7,0.5,1.8,0.3,2.4-0.4l1-1.3
	c0,0,0.2,0,0.2-0.4c0.4,0,0.1-0.2,0.6-0.7l0.1-0.1c0,0,0,0,0,0c0.2-0.1-0.1,0,0.1-0.2c0,0,0.2-0.2,0.3-0.3l0.7-1c0,0,0-0.1,0.1-0.1
	l0.2-0.2c0,0,0,0,0,0l0.1-0.1c0,0,0,0,0,0c0,0,0,0,0,0c0,0,0,0,0,0l1.5-2.2c0,0,0.1-0.2,0.1-0.2l0.5-0.7c0.1-0.1,0.2-0.2,0.2-0.3
	l1.5-2.2c0.3-0.5,0.8-1.2,1-1.7c0-0.1,0-0.1,0.1-0.2l0.9-1.5c0.3-0.5,0.6-0.9,0.8-1.4L29,23c0,0,0,0,0,0c0,0,0,0,0,0l1.7-5.2
	c0,0,0-0.1,0-0.1c0,0,0,0,0,0l0-0.1c0,0,0,0,0,0l0-0.4c0,0,0,0,0,0c0.1-0.6,0.2-1.5,0.1-2.1c0-0.3,0-0.2,0-0.4
	c0-0.6-0.1-1.7-0.3-2.2l-0.2-1c0,0,0,0,0,0L30.3,11c0,0,0,0,0,0l0-0.1c0,0,0,0,0,0L29,8.1c0,0,0,0,0,0l-0.5-0.7
	c-0.1-0.2-0.2-0.5-0.4-0.7l-0.3-0.3c0,0,0,0,0,0c0,0,0,0,0,0c0,0,0,0,0-0.1l-0.9-1.1c0,0,0,0,0,0c-0.3-0.3,0.3,0.2-0.1-0.1l-0.1,0
	c0,0,0,0,0,0l-0.4-0.4c0,0,0,0,0,0L25.8,4c0,0,0,0,0,0l-0.6-0.5c0,0,0,0,0,0l-0.4-0.3c0,0,0,0,0,0l-1.5-1c-0.3-0.2-0.2,0-0.5-0.2
	l-0.7-0.5c-0.1,0-0.1,0-0.2,0l-2.2-0.8c0,0,0,0,0,0c0,0,0,0,0,0l-1.7-0.3c-0.6-0.1-0.8,0-0.9-0.1c0,0,0,0,0,0L16,0c0,0-0.2,0-0.3,0
	c-0.3,0-0.2,0.1-0.5,0l-0.5,0C14.5,0,14.8,0,14.5,0z"/>
</svg>
