<?xml version="1.0" encoding="utf-8"?>
<!-- Generator: Adobe Illustrator 25.2.0, SVG Export Plug-In . SVG Version: 6.00 Build 0)  -->
<svg version="1.1" id="Layer_1" xmlns="http://www.w3.org/2000/svg" xmlns:xlink="http://www.w3.org/1999/xlink" x="0px" y="0px"
	 viewBox="0 0 15.7 15.3" style="enable-background:new 0 0 15.7 15.3;" xml:space="preserve">
<style type="text/css">
	.st0{fill-rule:evenodd;clip-rule:evenodd;fill:#FFFFFF;}
</style>
<path class="st0" d="M0,5.9v0.9C0.3,7.5,0.1,8.5,1.1,10c0.6,0.8,1.3,1.5,2.3,2c2.3,1.2,4.6,0.9,6.7-0.4c0.3,0.3,0.7,0.6,1.1,0.9
	l1.6,1.5c0.2,0.2,0.4,0.3,0.6,0.5c0.2,0.2,0.3,0.3,0.5,0.5c0.3,0.3,0.3,0.2,0.7,0.4h0.4c0,0,0,0,0.1,0l0.5-0.3
	c0.2-0.2,0.2-0.3,0.3-0.6V14c-0.2-0.3-0.2-0.4-0.4-0.6l-3.7-3.3c0.1-0.2,0.3-0.4,0.4-0.7c2-4-0.2-8.2-4.1-9.2L7.1,0C7,0,7,0,7,0H5.9
	C5.6,0.1,5.1,0.1,4.7,0.2C2.9,0.7,1.4,2,0.6,3.6C0,4.9,0.2,5.5,0,5.9 M5.8,1.5c2.9-0.4,5.2,1.8,5.5,4.3C11.6,8.7,9.5,11,7,11.3
	C4.1,11.7,1.8,9.5,1.5,7C1.1,4.1,3.2,1.8,5.8,1.5z"/>
</svg>
